<svg xmlns="http://www.w3.org/2000/svg" xmlns:xlink="http://www.w3.org/1999/xlink" contentStyleType="text/css" data-diagram-type="CLASS" height="1316px" preserveAspectRatio="none" style="width:4184px;height:1316px;background:#FFFFFF;" version="1.1" viewBox="0 0 4184 1316" width="4184px" zoomAndPan="magnify"><defs/><g><!--class AbstractFlyingObject--><g class="entity" data-entity="AbstractFlyingObject" data-source-line="2" data-uid="ent0002" id="entity_AbstractFlyingObject"><rect fill="#F1F1F1" height="420.4219" rx="2.5" ry="2.5" style="stroke:#181818;stroke-width:0.5;" width="472.6738" x="1405.5" y="7"/><ellipse cx="1573.0078" cy="23" fill="#A9DCDF" rx="11" ry="11" style="stroke:#181818;stroke-width:1;"/><path d="M1575.1953,24.7656 L1571.0547,24.7656 L1570.6328,25.7969 L1571.0547,25.7969 Q1571.6641,25.7969 1571.9297,26.0313 Q1572.1953,26.2656 1572.1953,26.6563 Q1572.1953,27.0313 1571.9297,27.2656 Q1571.6641,27.5 1571.0547,27.5 L1568.7578,27.5 Q1568.1484,27.5 1567.8984,27.2656 Q1567.6328,27.0313 1567.6328,26.6406 Q1567.6328,26.2656 1567.9141,26.0313 Q1568.1797,25.7813 1568.8047,25.7969 L1571.4766,19.1406 L1570.3672,19.1406 Q1569.7578,19.1406 1569.4922,18.9063 Q1569.2266,18.6719 1569.2266,18.2813 Q1569.2266,17.9063 1569.4922,17.6719 Q1569.7578,17.4375 1570.3672,17.4375 L1574.0391,17.4375 L1577.4297,25.7969 Q1578.0234,25.7969 1578.2109,25.9375 Q1578.6016,26.2031 1578.6016,26.6563 Q1578.6016,27.0313 1578.3359,27.2656 Q1578.0859,27.5 1577.4766,27.5 L1575.1797,27.5 Q1574.5703,27.5 1574.3047,27.2656 Q1574.0391,27.0313 1574.0391,26.6406 Q1574.0391,26.2656 1574.3047,26.0313 Q1574.5703,25.7969 1575.1797,25.7969 L1575.6016,25.7969 L1575.1953,24.7656 Z M1574.4766,23.0625 L1573.1172,19.6875 L1571.7422,23.0625 L1574.4766,23.0625 Z " fill="#000000"/><text fill="#000000" font-family="sans-serif" font-size="14" font-style="italic" lengthAdjust="spacing" textLength="129.1582" x="1593.5078" y="28.7969">AbstractFlyingObject</text><line style="stroke:#181818;stroke-width:0.5;" x1="1406.5" x2="1877.1738" y1="39" y2="39"/><polygon fill="none" points="1416.5,48.8105,1420.5,52.8105,1416.5,56.8105,1412.5,52.8105" style="stroke:#B38D22;stroke-width:1;"/><text fill="#000000" font-family="sans-serif" font-size="14" lengthAdjust="spacing" textLength="76.2686" x="1425.5" y="58.1074">locationX:int</text><polygon fill="none" points="1416.5,67.4316,1420.5,71.4316,1416.5,75.4316,1412.5,71.4316" style="stroke:#B38D22;stroke-width:1;"/><text fill="#000000" font-family="sans-serif" font-size="14" lengthAdjust="spacing" textLength="76.2686" x="1425.5" y="76.7285">locationY:int</text><polygon fill="none" points="1416.5,86.0527,1420.5,90.0527,1416.5,94.0527,1412.5,90.0527" style="stroke:#B38D22;stroke-width:1;"/><text fill="#000000" font-family="sans-serif" font-size="14" lengthAdjust="spacing" textLength="66.1582" x="1425.5" y="95.3496">speedX:int</text><polygon fill="none" points="1416.5,104.6738,1420.5,108.6738,1416.5,112.6738,1412.5,108.6738" style="stroke:#B38D22;stroke-width:1;"/><text fill="#000000" font-family="sans-serif" font-size="14" lengthAdjust="spacing" textLength="66.1582" x="1425.5" y="113.9707">speedY:int</text><polygon fill="none" points="1416.5,123.2949,1420.5,127.2949,1416.5,131.2949,1412.5,127.2949" style="stroke:#B38D22;stroke-width:1;"/><text fill="#000000" font-family="sans-serif" font-size="14" lengthAdjust="spacing" textLength="133.8545" x="1425.5" y="132.5918">image:BufferedImage</text><polygon fill="none" points="1416.5,141.916,1420.5,145.916,1416.5,149.916,1412.5,145.916" style="stroke:#B38D22;stroke-width:1;"/><text fill="#000000" font-family="sans-serif" font-size="14" lengthAdjust="spacing" textLength="51.3584" x="1425.5" y="151.2129">width:int</text><polygon fill="none" points="1416.5,160.5371,1420.5,164.5371,1416.5,168.5371,1412.5,164.5371" style="stroke:#B38D22;stroke-width:1;"/><text fill="#000000" font-family="sans-serif" font-size="14" lengthAdjust="spacing" textLength="56.8203" x="1425.5" y="169.834">height:int</text><polygon fill="none" points="1416.5,179.1582,1420.5,183.1582,1416.5,187.1582,1412.5,183.1582" style="stroke:#B38D22;stroke-width:1;"/><text fill="#000000" font-family="sans-serif" font-size="14" lengthAdjust="spacing" textLength="94.958" x="1425.5" y="188.4551">isValid:boolean</text><line style="stroke:#181818;stroke-width:0.5;" x1="1406.5" x2="1877.1738" y1="195.9688" y2="195.9688"/><ellipse cx="1416.5" cy="210.7793" fill="#84BE84" rx="3" ry="3" style="stroke:#038048;stroke-width:1;"/><text fill="#000000" font-family="sans-serif" font-size="14" lengthAdjust="spacing" textLength="446.6738" x="1425.5" y="215.0762">AbstractFlyingObject(int locationX, int locationY, int speedX, int speedY)</text><ellipse cx="1416.5" cy="229.4004" fill="#84BE84" rx="3" ry="3" style="stroke:#038048;stroke-width:1;"/><text fill="#000000" font-family="sans-serif" font-size="14" lengthAdjust="spacing" textLength="85.5791" x="1425.5" y="233.6973">forward():void</text><ellipse cx="1416.5" cy="248.0215" fill="#84BE84" rx="3" ry="3" style="stroke:#038048;stroke-width:1;"/><text fill="#000000" font-family="sans-serif" font-size="14" lengthAdjust="spacing" textLength="303.4678" x="1425.5" y="252.3184">crash(AbstractFlyingObject flyingObject):boolean</text><ellipse cx="1416.5" cy="266.6426" fill="#84BE84" rx="3" ry="3" style="stroke:#038048;stroke-width:1;"/><text fill="#000000" font-family="sans-serif" font-size="14" lengthAdjust="spacing" textLength="109.7305" x="1425.5" y="270.9395">getLocationX():int</text><ellipse cx="1416.5" cy="285.2637" fill="#84BE84" rx="3" ry="3" style="stroke:#038048;stroke-width:1;"/><text fill="#000000" font-family="sans-serif" font-size="14" lengthAdjust="spacing" textLength="109.7305" x="1425.5" y="289.5605">getLocationY():int</text><ellipse cx="1416.5" cy="303.8848" fill="#84BE84" rx="3" ry="3" style="stroke:#038048;stroke-width:1;"/><text fill="#000000" font-family="sans-serif" font-size="14" lengthAdjust="spacing" textLength="325.3291" x="1425.5" y="308.1816">setLocation(double locationX, double locationY):void</text><ellipse cx="1416.5" cy="322.5059" fill="#84BE84" rx="3" ry="3" style="stroke:#038048;stroke-width:1;"/><text fill="#000000" font-family="sans-serif" font-size="14" lengthAdjust="spacing" textLength="97.2822" x="1425.5" y="326.8027">getSpeedY():int</text><ellipse cx="1416.5" cy="341.127" fill="#84BE84" rx="3" ry="3" style="stroke:#038048;stroke-width:1;"/><text fill="#000000" font-family="sans-serif" font-size="14" lengthAdjust="spacing" textLength="163.4199" x="1425.5" y="345.4238">getImage():BufferedImage</text><ellipse cx="1416.5" cy="359.748" fill="#84BE84" rx="3" ry="3" style="stroke:#038048;stroke-width:1;"/><text fill="#000000" font-family="sans-serif" font-size="14" lengthAdjust="spacing" textLength="83.248" x="1425.5" y="364.0449">getWidth():int</text><ellipse cx="1416.5" cy="378.3691" fill="#84BE84" rx="3" ry="3" style="stroke:#038048;stroke-width:1;"/><text fill="#000000" font-family="sans-serif" font-size="14" lengthAdjust="spacing" textLength="87.9307" x="1425.5" y="382.666">getHeight():int</text><ellipse cx="1416.5" cy="396.9902" fill="#84BE84" rx="3" ry="3" style="stroke:#038048;stroke-width:1;"/><text fill="#000000" font-family="sans-serif" font-size="14" lengthAdjust="spacing" textLength="113.6338" x="1425.5" y="401.2871">notValid():boolean</text><ellipse cx="1416.5" cy="415.6113" fill="#84BE84" rx="3" ry="3" style="stroke:#038048;stroke-width:1;"/><text fill="#000000" font-family="sans-serif" font-size="14" lengthAdjust="spacing" textLength="79.3652" x="1425.5" y="419.9082">vanish():void</text></g><!--class AbstractAircraft--><g class="entity" data-entity="AbstractAircraft" data-source-line="26" data-uid="ent0003" id="entity_AbstractAircraft"><rect fill="#F1F1F1" height="271.4531" rx="2.5" ry="2.5" style="stroke:#181818;stroke-width:0.5;" width="481.2324" x="511.5" y="496.5"/><ellipse cx="700.0215" cy="512.5" fill="#A9DCDF" rx="11" ry="11" style="stroke:#181818;stroke-width:1;"/><path d="M702.209,514.2656 L698.0684,514.2656 L697.6465,515.2969 L698.0684,515.2969 Q698.6777,515.2969 698.9434,515.5313 Q699.209,515.7656 699.209,516.1563 Q699.209,516.5313 698.9434,516.7656 Q698.6777,517 698.0684,517 L695.7715,517 Q695.1621,517 694.9121,516.7656 Q694.6465,516.5313 694.6465,516.1406 Q694.6465,515.7656 694.9277,515.5313 Q695.1934,515.2813 695.8184,515.2969 L698.4902,508.6406 L697.3809,508.6406 Q696.7715,508.6406 696.5059,508.4063 Q696.2402,508.1719 696.2402,507.7813 Q696.2402,507.4063 696.5059,507.1719 Q696.7715,506.9375 697.3809,506.9375 L701.0527,506.9375 L704.4434,515.2969 Q705.0371,515.2969 705.2246,515.4375 Q705.6152,515.7031 705.6152,516.1563 Q705.6152,516.5313 705.3496,516.7656 Q705.0996,517 704.4902,517 L702.1934,517 Q701.584,517 701.3184,516.7656 Q701.0527,516.5313 701.0527,516.1406 Q701.0527,515.7656 701.3184,515.5313 Q701.584,515.2969 702.1934,515.2969 L702.6152,515.2969 L702.209,514.2656 Z M701.4902,512.5625 L700.1309,509.1875 L698.7559,512.5625 L701.4902,512.5625 Z " fill="#000000"/><text fill="#000000" font-family="sans-serif" font-size="14" font-style="italic" lengthAdjust="spacing" textLength="95.6895" x="720.5215" y="518.2969">AbstractAircraft</text><line style="stroke:#181818;stroke-width:0.5;" x1="512.5" x2="991.7324" y1="528.5" y2="528.5"/><polygon fill="none" points="522.5,538.3105,526.5,542.3105,522.5,546.3105,518.5,542.3105" style="stroke:#B38D22;stroke-width:1;"/><text fill="#000000" font-family="sans-serif" font-size="14" lengthAdjust="spacing" textLength="63.0205" x="531.5" y="547.6074">maxHp:int</text><polygon fill="none" points="522.5,556.9316,526.5,560.9316,522.5,564.9316,518.5,560.9316" style="stroke:#B38D22;stroke-width:1;"/><text fill="#000000" font-family="sans-serif" font-size="14" lengthAdjust="spacing" textLength="34.248" x="531.5" y="566.2285">hp:int</text><polygon fill="none" points="522.5,575.5527,526.5,579.5527,522.5,583.5527,518.5,579.5527" style="stroke:#B38D22;stroke-width:1;"/><text fill="#000000" font-family="sans-serif" font-size="14" lengthAdjust="spacing" textLength="87.9307" x="531.5" y="584.8496">shootCycle:int</text><polygon fill="none" points="522.5,594.1738,526.5,598.1738,522.5,602.1738,518.5,598.1738" style="stroke:#B38D22;stroke-width:1;"/><text fill="#000000" font-family="sans-serif" font-size="14" lengthAdjust="spacing" textLength="88.6963" x="531.5" y="603.4707">shootTimer:int</text><line style="stroke:#181818;stroke-width:0.5;" x1="512.5" x2="991.7324" y1="610.9844" y2="610.9844"/><ellipse cx="522.5" cy="625.7949" fill="#84BE84" rx="3" ry="3" style="stroke:#038048;stroke-width:1;"/><text fill="#000000" font-family="sans-serif" font-size="14" lengthAdjust="spacing" textLength="455.2324" x="531.5" y="630.0918">AbstractAircraft(int locationX, int locationY, int speedX, int speedY, int hp)</text><ellipse cx="522.5" cy="644.416" fill="#84BE84" rx="3" ry="3" style="stroke:#038048;stroke-width:1;"/><text fill="#000000" font-family="sans-serif" font-size="14" lengthAdjust="spacing" textLength="190.6543" x="531.5" y="648.7129">decreaseHp(int decrease):void</text><ellipse cx="522.5" cy="663.0371" fill="#84BE84" rx="3" ry="3" style="stroke:#038048;stroke-width:1;"/><text fill="#000000" font-family="sans-serif" font-size="14" lengthAdjust="spacing" textLength="65.3584" x="531.5" y="667.334">getHp():int</text><ellipse cx="522.5" cy="681.6582" fill="#84BE84" rx="3" ry="3" style="stroke:#038048;stroke-width:1;"/><text fill="#000000" font-family="sans-serif" font-size="14" lengthAdjust="spacing" textLength="91.8066" x="531.5" y="685.9551">getMaxHp():int</text><ellipse cx="522.5" cy="700.2793" fill="#84BE84" rx="3" ry="3" style="stroke:#038048;stroke-width:1;"/><text fill="#000000" font-family="sans-serif" font-size="14" lengthAdjust="spacing" textLength="109.7168" x="531.5" y="704.5762">setHp(int hp):void</text><ellipse cx="522.5" cy="718.9004" fill="#84BE84" rx="3" ry="3" style="stroke:#038048;stroke-width:1;"/><text fill="#000000" font-family="sans-serif" font-size="14" lengthAdjust="spacing" textLength="269.2539" x="531.5" y="723.1973">updateShootTimer(int timeInterval):boolean</text><ellipse cx="522.5" cy="737.5215" fill="#84BE84" rx="3" ry="3" style="stroke:#038048;stroke-width:1;"/><text fill="#000000" font-family="sans-serif" font-size="14" lengthAdjust="spacing" textLength="217.0957" x="531.5" y="741.8184">setShootCycle(int shootCycle):void</text><ellipse cx="522.5" cy="756.1426" fill="#84BE84" rx="3" ry="3" style="stroke:#038048;stroke-width:1;"/><text fill="#000000" font-family="sans-serif" font-size="14" font-style="italic" lengthAdjust="spacing" textLength="152.5303" x="531.5" y="760.4395">shoot():List&lt;BaseBullet&gt;</text></g><!--class AbstractEnemy--><g class="entity" data-entity="AbstractEnemy" data-source-line="44" data-uid="ent0005" id="entity_AbstractEnemy"><rect fill="#F1F1F1" height="103.8633" rx="2.5" ry="2.5" style="stroke:#181818;stroke-width:0.5;" width="480.4668" x="7" y="883.5"/><ellipse cx="195.5215" cy="899.5" fill="#A9DCDF" rx="11" ry="11" style="stroke:#181818;stroke-width:1;"/><path d="M197.709,901.2656 L193.5684,901.2656 L193.1465,902.2969 L193.5684,902.2969 Q194.1777,902.2969 194.4434,902.5313 Q194.709,902.7656 194.709,903.1563 Q194.709,903.5313 194.4434,903.7656 Q194.1777,904 193.5684,904 L191.2715,904 Q190.6621,904 190.4121,903.7656 Q190.1465,903.5313 190.1465,903.1406 Q190.1465,902.7656 190.4277,902.5313 Q190.6934,902.2813 191.3184,902.2969 L193.9902,895.6406 L192.8809,895.6406 Q192.2715,895.6406 192.0059,895.4063 Q191.7402,895.1719 191.7402,894.7813 Q191.7402,894.4063 192.0059,894.1719 Q192.2715,893.9375 192.8809,893.9375 L196.5527,893.9375 L199.9434,902.2969 Q200.5371,902.2969 200.7246,902.4375 Q201.1152,902.7031 201.1152,903.1563 Q201.1152,903.5313 200.8496,903.7656 Q200.5996,904 199.9902,904 L197.6934,904 Q197.084,904 196.8184,903.7656 Q196.5527,903.5313 196.5527,903.1406 Q196.5527,902.7656 196.8184,902.5313 Q197.084,902.2969 197.6934,902.2969 L198.1152,902.2969 L197.709,901.2656 Z M196.9902,899.5625 L195.6309,896.1875 L194.2559,899.5625 L196.9902,899.5625 Z " fill="#000000"/><text fill="#000000" font-family="sans-serif" font-size="14" font-style="italic" lengthAdjust="spacing" textLength="94.9238" x="216.0215" y="905.2969">AbstractEnemy</text><line style="stroke:#181818;stroke-width:0.5;" x1="8" x2="486.4668" y1="915.5" y2="915.5"/><line style="stroke:#181818;stroke-width:0.5;" x1="8" x2="486.4668" y1="923.5" y2="923.5"/><ellipse cx="18" cy="938.3105" fill="#84BE84" rx="3" ry="3" style="stroke:#038048;stroke-width:1;"/><text fill="#000000" font-family="sans-serif" font-size="14" lengthAdjust="spacing" textLength="454.4668" x="27" y="942.6074">AbstractEnemy(int locationX, int locationY, int speedX, int speedY, int hp)</text><ellipse cx="18" cy="956.9316" fill="#84BE84" rx="3" ry="3" style="stroke:#038048;stroke-width:1;"/><text fill="#000000" font-family="sans-serif" font-size="14" font-style="italic" lengthAdjust="spacing" textLength="84.0342" x="27" y="961.2285">getScore():int</text><ellipse cx="18" cy="975.5527" fill="#84BE84" rx="3" ry="3" style="stroke:#038048;stroke-width:1;"/><text fill="#000000" font-family="sans-serif" font-size="14" font-style="italic" lengthAdjust="spacing" textLength="189.0684" x="27" y="979.8496">mayDrop():List&lt;AbstractProp&gt;</text></g><!--class HeroAircraft--><g class="entity" data-entity="HeroAircraft" data-source-line="53" data-uid="ent0007" id="entity_HeroAircraft"><rect fill="#F1F1F1" height="196.9688" rx="2.5" ry="2.5" style="stroke:#181818;stroke-width:0.5;" width="460.2256" x="522" y="837"/><ellipse cx="710.5215" cy="853" fill="#ADD1B2" rx="11" ry="11" style="stroke:#181818;stroke-width:1;"/><path d="M713.2871,848.875 Q713.4434,848.6563 713.6309,848.5469 Q713.8184,848.4375 714.0371,848.4375 Q714.4121,848.4375 714.6465,848.7031 Q714.8809,848.9531 714.8809,849.5625 L714.8809,851.0156 Q714.8809,851.625 714.6465,851.8906 Q714.4121,852.1563 714.0371,852.1563 Q713.6934,852.1563 713.4902,851.9531 Q713.2871,851.7656 713.1777,851.25 Q713.1309,850.8906 712.9434,850.7031 Q712.6152,850.3281 712.0059,850.1094 Q711.3965,849.8906 710.7715,849.8906 Q710.0059,849.8906 709.3652,850.2188 Q708.7402,850.5469 708.2402,851.2969 Q707.7559,852.0469 707.7559,853.0781 L707.7559,854.1719 Q707.7559,855.4063 708.6465,856.2344 Q709.5371,857.0469 711.1309,857.0469 Q712.0684,857.0469 712.7246,856.7969 Q713.1152,856.6406 713.5371,856.2031 Q713.8027,855.9375 713.9434,855.8594 Q714.0996,855.7813 714.3027,855.7813 Q714.6309,855.7813 714.8809,856.0469 Q715.1465,856.2969 715.1465,856.6406 Q715.1465,856.9844 714.8027,857.3906 Q714.3027,857.9688 713.5059,858.2969 Q712.4277,858.75 711.1309,858.75 Q709.6152,858.75 708.4121,858.125 Q707.4277,857.625 706.7402,856.5625 Q706.0527,855.4844 706.0527,854.2031 L706.0527,853.0469 Q706.0527,851.7188 706.6621,850.5781 Q707.2871,849.4219 708.3809,848.8125 Q709.4746,848.1875 710.709,848.1875 Q711.4434,848.1875 712.084,848.3594 Q712.7402,848.5156 713.2871,848.875 Z " fill="#000000"/><text fill="#000000" font-family="sans-serif" font-size="14" lengthAdjust="spacing" textLength="74.6826" x="731.0215" y="858.7969">HeroAircraft</text><line style="stroke:#181818;stroke-width:0.5;" x1="523" x2="981.2256" y1="869" y2="869"/><rect fill="none" height="6" style="stroke:#C82930;stroke-width:1;" width="6" x="530" y="880.8105"/><text fill="#000000" font-family="sans-serif" font-size="14" lengthAdjust="spacing" textLength="82.4824" x="542" y="888.1074">shootNum:int</text><rect fill="none" height="6" style="stroke:#C82930;stroke-width:1;" width="6" x="530" y="899.4316"/><text fill="#000000" font-family="sans-serif" font-size="14" lengthAdjust="spacing" textLength="56.8066" x="542" y="906.7285">power:int</text><rect fill="none" height="6" style="stroke:#C82930;stroke-width:1;" width="6" x="530" y="918.0527"/><text fill="#000000" font-family="sans-serif" font-size="14" lengthAdjust="spacing" textLength="71.5928" x="542" y="925.3496">direction:int</text><line style="stroke:#181818;stroke-width:0.5;" x1="523" x2="981.2256" y1="932.8633" y2="932.8633"/><ellipse cx="533" cy="947.6738" fill="#84BE84" rx="3" ry="3" style="stroke:#038048;stroke-width:1;"/><text fill="#000000" font-family="sans-serif" font-size="14" lengthAdjust="spacing" textLength="434.2256" x="542" y="951.9707">HeroAircraft(int locationX, int locationY, int speedX, int speedY, int hp)</text><ellipse cx="533" cy="966.2949" fill="#84BE84" rx="3" ry="3" style="stroke:#038048;stroke-width:1;"/><text fill="#000000" font-family="sans-serif" font-size="14" lengthAdjust="spacing" textLength="113.6064" x="542" y="970.5918">getShootNum():int</text><ellipse cx="533" cy="984.916" fill="#84BE84" rx="3" ry="3" style="stroke:#038048;stroke-width:1;"/><text fill="#000000" font-family="sans-serif" font-size="14" lengthAdjust="spacing" textLength="206.1992" x="542" y="989.2129">setShootNum(int shootNum):void</text><ellipse cx="533" cy="1003.5371" fill="#84BE84" rx="3" ry="3" style="stroke:#038048;stroke-width:1;"/><text fill="#000000" font-family="sans-serif" font-size="14" lengthAdjust="spacing" textLength="85.5791" x="542" y="1007.834">forward():void</text><ellipse cx="533" cy="1022.1582" fill="#84BE84" rx="3" ry="3" style="stroke:#038048;stroke-width:1;"/><text fill="#000000" font-family="sans-serif" font-size="14" lengthAdjust="spacing" textLength="152.5303" x="542" y="1026.4551">shoot():List&lt;BaseBullet&gt;</text></g><!--class EnemyFactory--><g class="entity" data-entity="EnemyFactory" data-source-line="66" data-uid="ent0009" id="entity_EnemyFactory"><rect fill="#F1F1F1" height="66.6211" rx="2.5" ry="2.5" style="stroke:#181818;stroke-width:0.5;" width="216.6201" x="3661.5" y="183.5"/><ellipse cx="3720.436" cy="199.5" fill="#B4A7E5" rx="11" ry="11" style="stroke:#181818;stroke-width:1;"/><path d="M3721.3892,196.1406 L3721.3892,202.7969 L3723.1079,202.7969 Q3723.7173,202.7969 3723.9829,203.0313 Q3724.2485,203.2656 3724.2485,203.6563 Q3724.2485,204.0313 3723.9829,204.2656 Q3723.7173,204.5 3723.1079,204.5 L3717.9673,204.5 Q3717.3579,204.5 3717.0923,204.2656 Q3716.8267,204.0313 3716.8267,203.6406 Q3716.8267,203.2656 3717.0923,203.0313 Q3717.3579,202.7969 3717.9673,202.7969 L3719.686,202.7969 L3719.686,196.1406 L3717.9673,196.1406 Q3717.3579,196.1406 3717.0923,195.9063 Q3716.8267,195.6719 3716.8267,195.2813 Q3716.8267,194.9063 3717.0923,194.6719 Q3717.3579,194.4375 3717.9673,194.4375 L3723.1079,194.4375 Q3723.7173,194.4375 3723.9829,194.6719 Q3724.2485,194.9063 3724.2485,195.2813 Q3724.2485,195.6719 3723.9829,195.9063 Q3723.7173,196.1406 3723.1079,196.1406 L3721.3892,196.1406 Z " fill="#000000"/><text fill="#000000" font-family="sans-serif" font-size="14" font-style="italic" lengthAdjust="spacing" textLength="90.248" x="3740.936" y="205.2969">EnemyFactory</text><line style="stroke:#181818;stroke-width:0.5;" x1="3662.5" x2="3877.1201" y1="215.5" y2="215.5"/><line style="stroke:#181818;stroke-width:0.5;" x1="3662.5" x2="3877.1201" y1="223.5" y2="223.5"/><ellipse cx="3672.5" cy="238.3105" fill="#84BE84" rx="3" ry="3" style="stroke:#038048;stroke-width:1;"/><text fill="#000000" font-family="sans-serif" font-size="14" font-style="italic" lengthAdjust="spacing" textLength="190.6201" x="3681.5" y="242.6074">createEnemy():AbstractEnemy</text></g><!--class EnemyType--><g class="entity" data-entity="EnemyType" data-source-line="70" data-uid="ent0010" id="entity_EnemyType"><rect fill="#F1F1F1" height="85.2422" rx="2.5" ry="2.5" style="stroke:#181818;stroke-width:0.5;" width="106.6963" x="3913.5" y="174.5"/><ellipse cx="3928.5" cy="190.5" fill="#EB937F" rx="11" ry="11" style="stroke:#181818;stroke-width:1;"/><path d="M3927.3594,191.2969 L3927.3594,193.7969 L3931.6875,193.7969 L3931.6875,192.875 Q3931.6875,192.2656 3931.9219,192 Q3932.1719,191.7344 3932.5469,191.7344 Q3932.9219,191.7344 3933.1563,192 Q3933.3906,192.2656 3933.3906,192.875 L3933.3906,195.5 L3925.3906,195.5 Q3924.7656,195.5 3924.5,195.2656 Q3924.25,195.0313 3924.25,194.6406 Q3924.25,194.2656 3924.5156,194.0313 Q3924.7813,193.7969 3925.3906,193.7969 L3925.6563,193.7969 L3925.6563,187.1406 L3925.3906,187.1406 Q3924.7656,187.1406 3924.5,186.9063 Q3924.25,186.6719 3924.25,186.2813 Q3924.25,185.9063 3924.5,185.6719 Q3924.7656,185.4375 3925.3906,185.4375 L3933.0156,185.4375 L3933.0156,188.0313 Q3933.0156,188.6406 3932.7813,188.9063 Q3932.5625,189.1563 3932.1719,189.1563 Q3931.7969,189.1563 3931.5625,188.9063 Q3931.3281,188.6406 3931.3281,188.0313 L3931.3281,187.1406 L3927.3594,187.1406 L3927.3594,189.5938 L3928.8438,189.5938 Q3928.8438,188.9375 3928.9688,188.75 Q3929.2344,188.3438 3929.7031,188.3438 Q3930.0781,188.3438 3930.3125,188.6094 Q3930.5469,188.8594 3930.5469,189.4688 L3930.5469,191.4375 Q3930.5469,191.9844 3930.4219,192.1719 Q3930.1563,192.5625 3929.7031,192.5625 Q3929.2344,192.5625 3928.9688,192.1563 Q3928.8438,191.9688 3928.8438,191.2969 L3927.3594,191.2969 Z " fill="#000000"/><text fill="#000000" font-family="sans-serif" font-size="14" lengthAdjust="spacing" textLength="74.6963" x="3942.5" y="196.2969">EnemyType</text><line style="stroke:#181818;stroke-width:0.5;" x1="3914.5" x2="4019.1963" y1="206.5" y2="206.5"/><text fill="#000000" font-family="sans-serif" font-size="14" lengthAdjust="spacing" textLength="31.8896" x="3919.5" y="225.6074">MOB</text><text fill="#000000" font-family="sans-serif" font-size="14" lengthAdjust="spacing" textLength="38.9033" x="3919.5" y="244.2285">ELITE</text><line style="stroke:#181818;stroke-width:0.5;" x1="3914.5" x2="4019.1963" y1="251.7422" y2="251.7422"/></g><!--class RandomEnemyFactory--><g class="entity" data-entity="RandomEnemyFactory" data-source-line="75" data-uid="ent0011" id="entity_RandomEnemyFactory"><rect fill="#F1F1F1" height="141.1055" rx="2.5" ry="2.5" style="stroke:#181818;stroke-width:0.5;" width="315.4678" x="3747.5" y="865"/><ellipse cx="3829.4014" cy="881" fill="#ADD1B2" rx="11" ry="11" style="stroke:#181818;stroke-width:1;"/><path d="M3832.167,876.875 Q3832.3232,876.6563 3832.5107,876.5469 Q3832.6982,876.4375 3832.917,876.4375 Q3833.292,876.4375 3833.5264,876.7031 Q3833.7607,876.9531 3833.7607,877.5625 L3833.7607,879.0156 Q3833.7607,879.625 3833.5264,879.8906 Q3833.292,880.1563 3832.917,880.1563 Q3832.5732,880.1563 3832.3701,879.9531 Q3832.167,879.7656 3832.0576,879.25 Q3832.0107,878.8906 3831.8232,878.7031 Q3831.4951,878.3281 3830.8857,878.1094 Q3830.2764,877.8906 3829.6514,877.8906 Q3828.8857,877.8906 3828.2451,878.2188 Q3827.6201,878.5469 3827.1201,879.2969 Q3826.6357,880.0469 3826.6357,881.0781 L3826.6357,882.1719 Q3826.6357,883.4063 3827.5264,884.2344 Q3828.417,885.0469 3830.0107,885.0469 Q3830.9482,885.0469 3831.6045,884.7969 Q3831.9951,884.6406 3832.417,884.2031 Q3832.6826,883.9375 3832.8232,883.8594 Q3832.9795,883.7813 3833.1826,883.7813 Q3833.5107,883.7813 3833.7607,884.0469 Q3834.0264,884.2969 3834.0264,884.6406 Q3834.0264,884.9844 3833.6826,885.3906 Q3833.1826,885.9688 3832.3857,886.2969 Q3831.3076,886.75 3830.0107,886.75 Q3828.4951,886.75 3827.292,886.125 Q3826.3076,885.625 3825.6201,884.5625 Q3824.9326,883.4844 3824.9326,882.2031 L3824.9326,881.0469 Q3824.9326,879.7188 3825.542,878.5781 Q3826.167,877.4219 3827.2607,876.8125 Q3828.3545,876.1875 3829.5889,876.1875 Q3830.3232,876.1875 3830.9639,876.3594 Q3831.6201,876.5156 3832.167,876.875 Z " fill="#000000"/><text fill="#000000" font-family="sans-serif" font-size="14" lengthAdjust="spacing" textLength="143.165" x="3849.9014" y="886.7969">RandomEnemyFactory</text><line style="stroke:#181818;stroke-width:0.5;" x1="3748.5" x2="4061.9678" y1="897" y2="897"/><rect fill="none" height="6" style="stroke:#C82930;stroke-width:1;" width="6" x="3755.5" y="908.8105"/><text fill="#000000" font-family="sans-serif" font-size="14" lengthAdjust="spacing" textLength="225.6475" x="3767.5" y="916.1074">unifiedFactory:UnifiedEnemyFactory</text><rect fill="none" height="6" style="stroke:#C82930;stroke-width:1;" width="6" x="3755.5" y="927.4316"/><text fill="#000000" font-family="sans-serif" font-size="14" lengthAdjust="spacing" textLength="136.9785" x="3767.5" y="934.7285">eliteProbability:double</text><line style="stroke:#181818;stroke-width:0.5;" x1="3748.5" x2="4061.9678" y1="942.2422" y2="942.2422"/><ellipse cx="3758.5" cy="957.0527" fill="#84BE84" rx="3" ry="3" style="stroke:#038048;stroke-width:1;"/><text fill="#000000" font-family="sans-serif" font-size="14" lengthAdjust="spacing" textLength="289.4678" x="3767.5" y="961.3496">RandomEnemyFactory(double eliteProbability)</text><ellipse cx="3758.5" cy="975.6738" fill="#84BE84" rx="3" ry="3" style="stroke:#038048;stroke-width:1;"/><text fill="#000000" font-family="sans-serif" font-size="14" lengthAdjust="spacing" textLength="287.1504" x="3767.5" y="979.9707">setEliteProbability(double eliteProbability):void</text><ellipse cx="3758.5" cy="994.2949" fill="#84BE84" rx="3" ry="3" style="stroke:#038048;stroke-width:1;"/><text fill="#000000" font-family="sans-serif" font-size="14" lengthAdjust="spacing" textLength="190.6201" x="3767.5" y="998.5918">createEnemy():AbstractEnemy</text></g><!--class UnifiedEnemyFactory--><g class="entity" data-entity="UnifiedEnemyFactory" data-source-line="83" data-uid="ent0012" id="entity_UnifiedEnemyFactory"><rect fill="#F1F1F1" height="290.0742" rx="2.5" ry="2.5" style="stroke:#181818;stroke-width:0.5;" width="378.5156" x="3798.5" y="487"/><ellipse cx="3916.5942" cy="503" fill="#ADD1B2" rx="11" ry="11" style="stroke:#181818;stroke-width:1;"/><path d="M3919.3599,498.875 Q3919.5161,498.6563 3919.7036,498.5469 Q3919.8911,498.4375 3920.1099,498.4375 Q3920.4849,498.4375 3920.7192,498.7031 Q3920.9536,498.9531 3920.9536,499.5625 L3920.9536,501.0156 Q3920.9536,501.625 3920.7192,501.8906 Q3920.4849,502.1563 3920.1099,502.1563 Q3919.7661,502.1563 3919.563,501.9531 Q3919.3599,501.7656 3919.2505,501.25 Q3919.2036,500.8906 3919.0161,500.7031 Q3918.688,500.3281 3918.0786,500.1094 Q3917.4692,499.8906 3916.8442,499.8906 Q3916.0786,499.8906 3915.438,500.2188 Q3914.813,500.5469 3914.313,501.2969 Q3913.8286,502.0469 3913.8286,503.0781 L3913.8286,504.1719 Q3913.8286,505.4063 3914.7192,506.2344 Q3915.6099,507.0469 3917.2036,507.0469 Q3918.1411,507.0469 3918.7974,506.7969 Q3919.188,506.6406 3919.6099,506.2031 Q3919.8755,505.9375 3920.0161,505.8594 Q3920.1724,505.7813 3920.3755,505.7813 Q3920.7036,505.7813 3920.9536,506.0469 Q3921.2192,506.2969 3921.2192,506.6406 Q3921.2192,506.9844 3920.8755,507.3906 Q3920.3755,507.9688 3919.5786,508.2969 Q3918.5005,508.75 3917.2036,508.75 Q3915.688,508.75 3914.4849,508.125 Q3913.5005,507.625 3912.813,506.5625 Q3912.1255,505.4844 3912.1255,504.2031 L3912.1255,503.0469 Q3912.1255,501.7188 3912.7349,500.5781 Q3913.3599,499.4219 3914.4536,498.8125 Q3915.5474,498.1875 3916.7817,498.1875 Q3917.5161,498.1875 3918.1567,498.3594 Q3918.813,498.5156 3919.3599,498.875 Z " fill="#000000"/><text fill="#000000" font-family="sans-serif" font-size="14" lengthAdjust="spacing" textLength="133.8271" x="3937.0942" y="508.7969">UnifiedEnemyFactory</text><line style="stroke:#181818;stroke-width:0.5;" x1="3799.5" x2="4176.0156" y1="519" y2="519"/><rect fill="none" height="6" style="stroke:#C82930;stroke-width:1;" width="6" x="3806.5" y="530.8105"/><text fill="#000000" font-family="sans-serif" font-size="14" lengthAdjust="spacing" textLength="105.0479" x="3818.5" y="538.1074">type:EnemyType</text><rect fill="none" height="6" style="stroke:#C82930;stroke-width:1;" width="6" x="3806.5" y="549.4316"/><text fill="#000000" font-family="sans-serif" font-size="14" lengthAdjust="spacing" textLength="63.8066" x="3818.5" y="556.7285">mobHp:int</text><rect fill="none" height="6" style="stroke:#C82930;stroke-width:1;" width="6" x="3806.5" y="568.0527"/><text fill="#000000" font-family="sans-serif" font-size="14" lengthAdjust="spacing" textLength="95.7305" x="3818.5" y="575.3496">mobSpeedY:int</text><rect fill="none" height="6" style="stroke:#C82930;stroke-width:1;" width="6" x="3806.5" y="586.6738"/><text fill="#000000" font-family="sans-serif" font-size="14" lengthAdjust="spacing" textLength="62.2549" x="3818.5" y="593.9707">eliteHp:int</text><rect fill="none" height="6" style="stroke:#C82930;stroke-width:1;" width="6" x="3806.5" y="605.2949"/><text fill="#000000" font-family="sans-serif" font-size="14" lengthAdjust="spacing" textLength="126.0889" x="3818.5" y="612.5918">eliteBaseSpeedY:int</text><line style="stroke:#181818;stroke-width:0.5;" x1="3799.5" x2="4176.0156" y1="620.1055" y2="620.1055"/><ellipse cx="3809.5" cy="634.916" fill="#84BE84" rx="3" ry="3" style="stroke:#038048;stroke-width:1;"/><text fill="#000000" font-family="sans-serif" font-size="14" lengthAdjust="spacing" textLength="143.1514" x="3818.5" y="639.2129">UnifiedEnemyFactory()</text><ellipse cx="3809.5" cy="653.5371" fill="#84BE84" rx="3" ry="3" style="stroke:#038048;stroke-width:1;"/><text fill="#000000" font-family="sans-serif" font-size="14" lengthAdjust="spacing" textLength="248.1992" x="3818.5" y="657.834">UnifiedEnemyFactory(EnemyType type)</text><ellipse cx="3809.5" cy="672.1582" fill="#84BE84" rx="3" ry="3" style="stroke:#038048;stroke-width:1;"/><text fill="#000000" font-family="sans-serif" font-size="14" lengthAdjust="spacing" textLength="301.8887" x="3818.5" y="676.4551">setType(EnemyType type):UnifiedEnemyFactory</text><ellipse cx="3809.5" cy="690.7793" fill="#84BE84" rx="3" ry="3" style="stroke:#038048;stroke-width:1;"/><text fill="#000000" font-family="sans-serif" font-size="14" lengthAdjust="spacing" textLength="319.8193" x="3818.5" y="695.0762">configMob(int hp, int speedY):UnifiedEnemyFactory</text><ellipse cx="3809.5" cy="709.4004" fill="#84BE84" rx="3" ry="3" style="stroke:#038048;stroke-width:1;"/><text fill="#000000" font-family="sans-serif" font-size="14" lengthAdjust="spacing" textLength="352.5156" x="3818.5" y="713.6973">configElite(int hp, int baseSpeedY):UnifiedEnemyFactory</text><ellipse cx="3809.5" cy="728.0215" fill="#84BE84" rx="3" ry="3" style="stroke:#038048;stroke-width:1;"/><text fill="#000000" font-family="sans-serif" font-size="14" lengthAdjust="spacing" textLength="190.6201" x="3818.5" y="732.3184">createEnemy():AbstractEnemy</text><rect fill="#F24D5C" height="6" style="stroke:#C82930;stroke-width:1;" width="6" x="3806.5" y="743.6426"/><text fill="#000000" font-family="sans-serif" font-size="14" lengthAdjust="spacing" textLength="174.2822" x="3818.5" y="750.9395">createMob():AbstractEnemy</text><rect fill="#F24D5C" height="6" style="stroke:#C82930;stroke-width:1;" width="6" x="3806.5" y="762.2637"/><text fill="#000000" font-family="sans-serif" font-size="14" lengthAdjust="spacing" textLength="174.2822" x="3818.5" y="769.5605">createElite():AbstractEnemy</text></g><!--class PropFactory--><g class="entity" data-entity="PropFactory" data-source-line="103" data-uid="ent0016" id="entity_PropFactory"><rect fill="#F1F1F1" height="66.6211" rx="2.5" ry="2.5" style="stroke:#181818;stroke-width:0.5;" width="218.1787" x="3408" y="183.5"/><ellipse cx="3474.7153" cy="199.5" fill="#B4A7E5" rx="11" ry="11" style="stroke:#181818;stroke-width:1;"/><path d="M3475.6685,196.1406 L3475.6685,202.7969 L3477.3872,202.7969 Q3477.9966,202.7969 3478.2622,203.0313 Q3478.5278,203.2656 3478.5278,203.6563 Q3478.5278,204.0313 3478.2622,204.2656 Q3477.9966,204.5 3477.3872,204.5 L3472.2466,204.5 Q3471.6372,204.5 3471.3716,204.2656 Q3471.106,204.0313 3471.106,203.6406 Q3471.106,203.2656 3471.3716,203.0313 Q3471.6372,202.7969 3472.2466,202.7969 L3473.9653,202.7969 L3473.9653,196.1406 L3472.2466,196.1406 Q3471.6372,196.1406 3471.3716,195.9063 Q3471.106,195.6719 3471.106,195.2813 Q3471.106,194.9063 3471.3716,194.6719 Q3471.6372,194.4375 3472.2466,194.4375 L3477.3872,194.4375 Q3477.9966,194.4375 3478.2622,194.6719 Q3478.5278,194.9063 3478.5278,195.2813 Q3478.5278,195.6719 3478.2622,195.9063 Q3477.9966,196.1406 3477.3872,196.1406 L3475.6685,196.1406 Z " fill="#000000"/><text fill="#000000" font-family="sans-serif" font-size="14" font-style="italic" lengthAdjust="spacing" textLength="76.248" x="3495.2153" y="205.2969">PropFactory</text><line style="stroke:#181818;stroke-width:0.5;" x1="3409" x2="3625.1787" y1="215.5" y2="215.5"/><line style="stroke:#181818;stroke-width:0.5;" x1="3409" x2="3625.1787" y1="223.5" y2="223.5"/><ellipse cx="3419" cy="238.3105" fill="#84BE84" rx="3" ry="3" style="stroke:#038048;stroke-width:1;"/><text fill="#000000" font-family="sans-serif" font-size="14" font-style="italic" lengthAdjust="spacing" textLength="192.1787" x="3428" y="242.6074">create(int x, int y):AbstractProp</text></g><!--class PropType--><g class="entity" data-entity="PropType" data-source-line="107" data-uid="ent0017" id="entity_PropType"><rect fill="#F1F1F1" height="103.8633" rx="2.5" ry="2.5" style="stroke:#181818;stroke-width:0.5;" width="92.6963" x="4055.5" y="165"/><ellipse cx="4070.5" cy="181" fill="#EB937F" rx="11" ry="11" style="stroke:#181818;stroke-width:1;"/><path d="M4069.3594,181.7969 L4069.3594,184.2969 L4073.6875,184.2969 L4073.6875,183.375 Q4073.6875,182.7656 4073.9219,182.5 Q4074.1719,182.2344 4074.5469,182.2344 Q4074.9219,182.2344 4075.1563,182.5 Q4075.3906,182.7656 4075.3906,183.375 L4075.3906,186 L4067.3906,186 Q4066.7656,186 4066.5,185.7656 Q4066.25,185.5313 4066.25,185.1406 Q4066.25,184.7656 4066.5156,184.5313 Q4066.7813,184.2969 4067.3906,184.2969 L4067.6563,184.2969 L4067.6563,177.6406 L4067.3906,177.6406 Q4066.7656,177.6406 4066.5,177.4063 Q4066.25,177.1719 4066.25,176.7813 Q4066.25,176.4063 4066.5,176.1719 Q4066.7656,175.9375 4067.3906,175.9375 L4075.0156,175.9375 L4075.0156,178.5313 Q4075.0156,179.1406 4074.7813,179.4063 Q4074.5625,179.6563 4074.1719,179.6563 Q4073.7969,179.6563 4073.5625,179.4063 Q4073.3281,179.1406 4073.3281,178.5313 L4073.3281,177.6406 L4069.3594,177.6406 L4069.3594,180.0938 L4070.8438,180.0938 Q4070.8438,179.4375 4070.9688,179.25 Q4071.2344,178.8438 4071.7031,178.8438 Q4072.0781,178.8438 4072.3125,179.1094 Q4072.5469,179.3594 4072.5469,179.9688 L4072.5469,181.9375 Q4072.5469,182.4844 4072.4219,182.6719 Q4072.1563,183.0625 4071.7031,183.0625 Q4071.2344,183.0625 4070.9688,182.6563 Q4070.8438,182.4688 4070.8438,181.7969 L4069.3594,181.7969 Z " fill="#000000"/><text fill="#000000" font-family="sans-serif" font-size="14" lengthAdjust="spacing" textLength="60.6963" x="4084.5" y="186.7969">PropType</text><line style="stroke:#181818;stroke-width:0.5;" x1="4056.5" x2="4147.1963" y1="197" y2="197"/><text fill="#000000" font-family="sans-serif" font-size="14" lengthAdjust="spacing" textLength="49.0137" x="4061.5" y="216.1074">BLOOD</text><text fill="#000000" font-family="sans-serif" font-size="14" lengthAdjust="spacing" textLength="41.2275" x="4061.5" y="234.7285">BOMB</text><text fill="#000000" font-family="sans-serif" font-size="14" lengthAdjust="spacing" textLength="52.9102" x="4061.5" y="253.3496">BULLET</text><line style="stroke:#181818;stroke-width:0.5;" x1="4056.5" x2="4147.1963" y1="260.8633" y2="260.8633"/></g><!--class RandomPropDropper--><g class="entity" data-entity="RandomPropDropper" data-source-line="113" data-uid="ent0018" id="entity_RandomPropDropper"><rect fill="#F1F1F1" height="159.7266" rx="2.5" ry="2.5" style="stroke:#181818;stroke-width:0.5;" width="272.6748" x="3380.5" y="855.5"/><ellipse cx="3446.0532" cy="871.5" fill="#ADD1B2" rx="11" ry="11" style="stroke:#181818;stroke-width:1;"/><path d="M3448.8188,867.375 Q3448.9751,867.1563 3449.1626,867.0469 Q3449.3501,866.9375 3449.5688,866.9375 Q3449.9438,866.9375 3450.1782,867.2031 Q3450.4126,867.4531 3450.4126,868.0625 L3450.4126,869.5156 Q3450.4126,870.125 3450.1782,870.3906 Q3449.9438,870.6563 3449.5688,870.6563 Q3449.2251,870.6563 3449.022,870.4531 Q3448.8188,870.2656 3448.7095,869.75 Q3448.6626,869.3906 3448.4751,869.2031 Q3448.147,868.8281 3447.5376,868.6094 Q3446.9282,868.3906 3446.3032,868.3906 Q3445.5376,868.3906 3444.897,868.7188 Q3444.272,869.0469 3443.772,869.7969 Q3443.2876,870.5469 3443.2876,871.5781 L3443.2876,872.6719 Q3443.2876,873.9063 3444.1782,874.7344 Q3445.0688,875.5469 3446.6626,875.5469 Q3447.6001,875.5469 3448.2563,875.2969 Q3448.647,875.1406 3449.0688,874.7031 Q3449.3345,874.4375 3449.4751,874.3594 Q3449.6313,874.2813 3449.8345,874.2813 Q3450.1626,874.2813 3450.4126,874.5469 Q3450.6782,874.7969 3450.6782,875.1406 Q3450.6782,875.4844 3450.3345,875.8906 Q3449.8345,876.4688 3449.0376,876.7969 Q3447.9595,877.25 3446.6626,877.25 Q3445.147,877.25 3443.9438,876.625 Q3442.9595,876.125 3442.272,875.0625 Q3441.5845,873.9844 3441.5845,872.7031 L3441.5845,871.5469 Q3441.5845,870.2188 3442.1938,869.0781 Q3442.8188,867.9219 3443.9126,867.3125 Q3445.0063,866.6875 3446.2407,866.6875 Q3446.9751,866.6875 3447.6157,866.8594 Q3448.272,867.0156 3448.8188,867.375 Z " fill="#000000"/><text fill="#000000" font-family="sans-serif" font-size="14" lengthAdjust="spacing" textLength="133.0684" x="3466.5532" y="877.2969">RandomPropDropper</text><line style="stroke:#181818;stroke-width:0.5;" x1="3381.5" x2="3652.1748" y1="887.5" y2="887.5"/><rect fill="none" height="6" style="stroke:#C82930;stroke-width:1;" width="6" x="3388.5" y="899.3105"/><text fill="#000000" font-family="sans-serif" font-size="14" lengthAdjust="spacing" textLength="103.5234" x="3400.5" y="906.6074">dropRate:double</text><rect fill="none" height="6" style="stroke:#C82930;stroke-width:1;" width="6" x="3388.5" y="917.9316"/><text fill="#000000" font-family="sans-serif" font-size="14" lengthAdjust="spacing" textLength="211.6475" x="3400.5" y="925.2285">unifiedFactory:UnifiedPropFactory</text><rect fill="none" height="6" style="stroke:#C82930;stroke-width:1;" width="6" x="3388.5" y="936.5527"/><text fill="#000000" font-family="sans-serif" font-size="14" lengthAdjust="spacing" textLength="104.2754" x="3400.5" y="943.8496">random:Random</text><rect fill="none" height="6" style="stroke:#C82930;stroke-width:1;" width="6" x="3388.5" y="955.1738"/><text fill="#000000" font-family="sans-serif" font-size="14" lengthAdjust="spacing" textLength="105.8271" x="3400.5" y="962.4707">types:PropType[]</text><line style="stroke:#181818;stroke-width:0.5;" x1="3381.5" x2="3652.1748" y1="969.9844" y2="969.9844"/><ellipse cx="3391.5" cy="984.7949" fill="#84BE84" rx="3" ry="3" style="stroke:#038048;stroke-width:1;"/><text fill="#000000" font-family="sans-serif" font-size="14" lengthAdjust="spacing" textLength="245.916" x="3400.5" y="989.0918">RandomPropDropper(double dropRate)</text><ellipse cx="3391.5" cy="1003.416" fill="#84BE84" rx="3" ry="3" style="stroke:#038048;stroke-width:1;"/><text fill="#000000" font-family="sans-serif" font-size="14" lengthAdjust="spacing" textLength="246.6748" x="3400.5" y="1007.7129">generate(int x, int y):List&lt;AbstractProp&gt;</text></g><!--class UnifiedPropFactory--><g class="entity" data-entity="UnifiedPropFactory" data-source-line="122" data-uid="ent0019" id="entity_UnifiedPropFactory"><rect fill="#F1F1F1" height="178.3477" rx="2.5" ry="2.5" style="stroke:#181818;stroke-width:0.5;" width="299.8887" x="3367" y="543"/><ellipse cx="3452.7808" cy="559" fill="#ADD1B2" rx="11" ry="11" style="stroke:#181818;stroke-width:1;"/><path d="M3455.5464,554.875 Q3455.7026,554.6563 3455.8901,554.5469 Q3456.0776,554.4375 3456.2964,554.4375 Q3456.6714,554.4375 3456.9058,554.7031 Q3457.1401,554.9531 3457.1401,555.5625 L3457.1401,557.0156 Q3457.1401,557.625 3456.9058,557.8906 Q3456.6714,558.1563 3456.2964,558.1563 Q3455.9526,558.1563 3455.7495,557.9531 Q3455.5464,557.7656 3455.437,557.25 Q3455.3901,556.8906 3455.2026,556.7031 Q3454.8745,556.3281 3454.2651,556.1094 Q3453.6558,555.8906 3453.0308,555.8906 Q3452.2651,555.8906 3451.6245,556.2188 Q3450.9995,556.5469 3450.4995,557.2969 Q3450.0151,558.0469 3450.0151,559.0781 L3450.0151,560.1719 Q3450.0151,561.4063 3450.9058,562.2344 Q3451.7964,563.0469 3453.3901,563.0469 Q3454.3276,563.0469 3454.9839,562.7969 Q3455.3745,562.6406 3455.7964,562.2031 Q3456.062,561.9375 3456.2026,561.8594 Q3456.3589,561.7813 3456.562,561.7813 Q3456.8901,561.7813 3457.1401,562.0469 Q3457.4058,562.2969 3457.4058,562.6406 Q3457.4058,562.9844 3457.062,563.3906 Q3456.562,563.9688 3455.7651,564.2969 Q3454.687,564.75 3453.3901,564.75 Q3451.8745,564.75 3450.6714,564.125 Q3449.687,563.625 3448.9995,562.5625 Q3448.312,561.4844 3448.312,560.2031 L3448.312,559.0469 Q3448.312,557.7188 3448.9214,556.5781 Q3449.5464,555.4219 3450.6401,554.8125 Q3451.7339,554.1875 3452.9683,554.1875 Q3453.7026,554.1875 3454.3433,554.3594 Q3454.9995,554.5156 3455.5464,554.875 Z " fill="#000000"/><text fill="#000000" font-family="sans-serif" font-size="14" lengthAdjust="spacing" textLength="119.8271" x="3473.2808" y="564.7969">UnifiedPropFactory</text><line style="stroke:#181818;stroke-width:0.5;" x1="3368" x2="3665.8887" y1="575" y2="575"/><rect fill="none" height="6" style="stroke:#C82930;stroke-width:1;" width="6" x="3375" y="586.8105"/><text fill="#000000" font-family="sans-serif" font-size="14" lengthAdjust="spacing" textLength="91.0479" x="3387" y="594.1074">type:PropType</text><rect fill="none" height="6" style="stroke:#C82930;stroke-width:1;" width="6" x="3375" y="605.4316"/><text fill="#000000" font-family="sans-serif" font-size="14" lengthAdjust="spacing" textLength="66.1582" x="3387" y="612.7285">speedY:int</text><line style="stroke:#181818;stroke-width:0.5;" x1="3368" x2="3665.8887" y1="620.2422" y2="620.2422"/><ellipse cx="3378" cy="635.0527" fill="#84BE84" rx="3" ry="3" style="stroke:#038048;stroke-width:1;"/><text fill="#000000" font-family="sans-serif" font-size="14" lengthAdjust="spacing" textLength="129.1514" x="3387" y="639.3496">UnifiedPropFactory()</text><ellipse cx="3378" cy="653.6738" fill="#84BE84" rx="3" ry="3" style="stroke:#038048;stroke-width:1;"/><text fill="#000000" font-family="sans-serif" font-size="14" lengthAdjust="spacing" textLength="220.1992" x="3387" y="657.9707">UnifiedPropFactory(PropType type)</text><ellipse cx="3378" cy="672.2949" fill="#84BE84" rx="3" ry="3" style="stroke:#038048;stroke-width:1;"/><text fill="#000000" font-family="sans-serif" font-size="14" lengthAdjust="spacing" textLength="273.8887" x="3387" y="676.5918">setType(PropType type):UnifiedPropFactory</text><ellipse cx="3378" cy="690.916" fill="#84BE84" rx="3" ry="3" style="stroke:#038048;stroke-width:1;"/><text fill="#000000" font-family="sans-serif" font-size="14" lengthAdjust="spacing" textLength="267.6953" x="3387" y="695.2129">setSpeedY(int speedY):UnifiedPropFactory</text><ellipse cx="3378" cy="709.5371" fill="#84BE84" rx="3" ry="3" style="stroke:#038048;stroke-width:1;"/><text fill="#000000" font-family="sans-serif" font-size="14" lengthAdjust="spacing" textLength="192.1787" x="3387" y="713.834">create(int x, int y):AbstractProp</text></g><!--class EliteEnemy--><g class="entity" data-entity="EliteEnemy" data-source-line="133" data-uid="ent0021" id="entity_EliteEnemy"><rect fill="#F1F1F1" height="215.5898" rx="2.5" ry="2.5" style="stroke:#181818;stroke-width:0.5;" width="456.3496" x="1899" y="1094"/><ellipse cx="2087.5215" cy="1110" fill="#ADD1B2" rx="11" ry="11" style="stroke:#181818;stroke-width:1;"/><path d="M2090.2871,1105.875 Q2090.4434,1105.6563 2090.6309,1105.5469 Q2090.8184,1105.4375 2091.0371,1105.4375 Q2091.4121,1105.4375 2091.6465,1105.7031 Q2091.8809,1105.9531 2091.8809,1106.5625 L2091.8809,1108.0156 Q2091.8809,1108.625 2091.6465,1108.8906 Q2091.4121,1109.1563 2091.0371,1109.1563 Q2090.6934,1109.1563 2090.4902,1108.9531 Q2090.2871,1108.7656 2090.1777,1108.25 Q2090.1309,1107.8906 2089.9434,1107.7031 Q2089.6152,1107.3281 2089.0059,1107.1094 Q2088.3965,1106.8906 2087.7715,1106.8906 Q2087.0059,1106.8906 2086.3652,1107.2188 Q2085.7402,1107.5469 2085.2402,1108.2969 Q2084.7559,1109.0469 2084.7559,1110.0781 L2084.7559,1111.1719 Q2084.7559,1112.4063 2085.6465,1113.2344 Q2086.5371,1114.0469 2088.1309,1114.0469 Q2089.0684,1114.0469 2089.7246,1113.7969 Q2090.1152,1113.6406 2090.5371,1113.2031 Q2090.8027,1112.9375 2090.9434,1112.8594 Q2091.0996,1112.7813 2091.3027,1112.7813 Q2091.6309,1112.7813 2091.8809,1113.0469 Q2092.1465,1113.2969 2092.1465,1113.6406 Q2092.1465,1113.9844 2091.8027,1114.3906 Q2091.3027,1114.9688 2090.5059,1115.2969 Q2089.4277,1115.75 2088.1309,1115.75 Q2086.6152,1115.75 2085.4121,1115.125 Q2084.4277,1114.625 2083.7402,1113.5625 Q2083.0527,1112.4844 2083.0527,1111.2031 L2083.0527,1110.0469 Q2083.0527,1108.7188 2083.6621,1107.5781 Q2084.2871,1106.4219 2085.3809,1105.8125 Q2086.4746,1105.1875 2087.709,1105.1875 Q2088.4434,1105.1875 2089.084,1105.3594 Q2089.7402,1105.5156 2090.2871,1105.875 Z " fill="#000000"/><text fill="#000000" font-family="sans-serif" font-size="14" lengthAdjust="spacing" textLength="70.8066" x="2108.0215" y="1115.7969">EliteEnemy</text><line style="stroke:#181818;stroke-width:0.5;" x1="1900" x2="2354.3496" y1="1126" y2="1126"/><rect fill="none" height="6" style="stroke:#C82930;stroke-width:1;" width="6" x="1907" y="1137.8105"/><text fill="#000000" font-family="sans-serif" font-size="14" lengthAdjust="spacing" textLength="71.5928" x="1919" y="1145.1074">direction:int</text><rect fill="none" height="6" style="stroke:#C82930;stroke-width:1;" width="6" x="1907" y="1156.4316"/><text fill="#000000" font-family="sans-serif" font-size="14" lengthAdjust="spacing" textLength="56.8066" x="1919" y="1163.7285">power:int</text><rect fill="none" height="6" style="stroke:#C82930;stroke-width:1;" width="6" x="1907" y="1175.0527"/><text fill="#000000" font-family="sans-serif" font-size="14" lengthAdjust="spacing" textLength="133.8682" x="1919" y="1182.3496">propDropRate:double</text><rect fill="none" height="6" style="stroke:#C82930;stroke-width:1;" width="6" x="1907" y="1193.6738"/><text fill="#000000" font-family="sans-serif" font-size="14" lengthAdjust="spacing" textLength="215.5576" x="1919" y="1200.9707">propDropper:RandomPropDropper</text><line style="stroke:#181818;stroke-width:0.5;" x1="1900" x2="2354.3496" y1="1208.4844" y2="1208.4844"/><ellipse cx="1910" cy="1223.2949" fill="#84BE84" rx="3" ry="3" style="stroke:#038048;stroke-width:1;"/><text fill="#000000" font-family="sans-serif" font-size="14" lengthAdjust="spacing" textLength="430.3496" x="1919" y="1227.5918">EliteEnemy(int locationX, int locationY, int speedX, int speedY, int hp)</text><ellipse cx="1910" cy="1241.916" fill="#84BE84" rx="3" ry="3" style="stroke:#038048;stroke-width:1;"/><text fill="#000000" font-family="sans-serif" font-size="14" lengthAdjust="spacing" textLength="85.5791" x="1919" y="1246.2129">forward():void</text><ellipse cx="1910" cy="1260.5371" fill="#84BE84" rx="3" ry="3" style="stroke:#038048;stroke-width:1;"/><text fill="#000000" font-family="sans-serif" font-size="14" lengthAdjust="spacing" textLength="152.5303" x="1919" y="1264.834">shoot():List&lt;BaseBullet&gt;</text><ellipse cx="1910" cy="1279.1582" fill="#84BE84" rx="3" ry="3" style="stroke:#038048;stroke-width:1;"/><text fill="#000000" font-family="sans-serif" font-size="14" lengthAdjust="spacing" textLength="84.0342" x="1919" y="1283.4551">getScore():int</text><ellipse cx="1910" cy="1297.7793" fill="#84BE84" rx="3" ry="3" style="stroke:#038048;stroke-width:1;"/><text fill="#000000" font-family="sans-serif" font-size="14" lengthAdjust="spacing" textLength="189.0684" x="1919" y="1302.0762">mayDrop():List&lt;AbstractProp&gt;</text></g><!--class MobEnemy--><g class="entity" data-entity="MobEnemy" data-source-line="137" data-uid="ent0024" id="entity_MobEnemy"><rect fill="#F1F1F1" height="141.1055" rx="2.5" ry="2.5" style="stroke:#181818;stroke-width:0.5;" width="456.3496" x="19" y="1131.5"/><ellipse cx="207.5215" cy="1147.5" fill="#ADD1B2" rx="11" ry="11" style="stroke:#181818;stroke-width:1;"/><path d="M210.2871,1143.375 Q210.4434,1143.1563 210.6309,1143.0469 Q210.8184,1142.9375 211.0371,1142.9375 Q211.4121,1142.9375 211.6465,1143.2031 Q211.8809,1143.4531 211.8809,1144.0625 L211.8809,1145.5156 Q211.8809,1146.125 211.6465,1146.3906 Q211.4121,1146.6563 211.0371,1146.6563 Q210.6934,1146.6563 210.4902,1146.4531 Q210.2871,1146.2656 210.1777,1145.75 Q210.1309,1145.3906 209.9434,1145.2031 Q209.6152,1144.8281 209.0059,1144.6094 Q208.3965,1144.3906 207.7715,1144.3906 Q207.0059,1144.3906 206.3652,1144.7188 Q205.7402,1145.0469 205.2402,1145.7969 Q204.7559,1146.5469 204.7559,1147.5781 L204.7559,1148.6719 Q204.7559,1149.9063 205.6465,1150.7344 Q206.5371,1151.5469 208.1309,1151.5469 Q209.0684,1151.5469 209.7246,1151.2969 Q210.1152,1151.1406 210.5371,1150.7031 Q210.8027,1150.4375 210.9434,1150.3594 Q211.0996,1150.2813 211.3027,1150.2813 Q211.6309,1150.2813 211.8809,1150.5469 Q212.1465,1150.7969 212.1465,1151.1406 Q212.1465,1151.4844 211.8027,1151.8906 Q211.3027,1152.4688 210.5059,1152.7969 Q209.4277,1153.25 208.1309,1153.25 Q206.6152,1153.25 205.4121,1152.625 Q204.4277,1152.125 203.7402,1151.0625 Q203.0527,1149.9844 203.0527,1148.7031 L203.0527,1147.5469 Q203.0527,1146.2188 203.6621,1145.0781 Q204.2871,1143.9219 205.3809,1143.3125 Q206.4746,1142.6875 207.709,1142.6875 Q208.4434,1142.6875 209.084,1142.8594 Q209.7402,1143.0156 210.2871,1143.375 Z " fill="#000000"/><text fill="#000000" font-family="sans-serif" font-size="14" lengthAdjust="spacing" textLength="70.8066" x="228.0215" y="1153.2969">MobEnemy</text><line style="stroke:#181818;stroke-width:0.5;" x1="20" x2="474.3496" y1="1163.5" y2="1163.5"/><line style="stroke:#181818;stroke-width:0.5;" x1="20" x2="474.3496" y1="1171.5" y2="1171.5"/><ellipse cx="30" cy="1186.3105" fill="#84BE84" rx="3" ry="3" style="stroke:#038048;stroke-width:1;"/><text fill="#000000" font-family="sans-serif" font-size="14" lengthAdjust="spacing" textLength="430.3496" x="39" y="1190.6074">MobEnemy(int locationX, int locationY, int speedX, int speedY, int hp)</text><ellipse cx="30" cy="1204.9316" fill="#84BE84" rx="3" ry="3" style="stroke:#038048;stroke-width:1;"/><text fill="#000000" font-family="sans-serif" font-size="14" lengthAdjust="spacing" textLength="85.5791" x="39" y="1209.2285">forward():void</text><ellipse cx="30" cy="1223.5527" fill="#84BE84" rx="3" ry="3" style="stroke:#038048;stroke-width:1;"/><text fill="#000000" font-family="sans-serif" font-size="14" lengthAdjust="spacing" textLength="152.5303" x="39" y="1227.8496">shoot():List&lt;BaseBullet&gt;</text><ellipse cx="30" cy="1242.1738" fill="#84BE84" rx="3" ry="3" style="stroke:#038048;stroke-width:1;"/><text fill="#000000" font-family="sans-serif" font-size="14" lengthAdjust="spacing" textLength="84.0342" x="39" y="1246.4707">getScore():int</text><ellipse cx="30" cy="1260.7949" fill="#84BE84" rx="3" ry="3" style="stroke:#038048;stroke-width:1;"/><text fill="#000000" font-family="sans-serif" font-size="14" lengthAdjust="spacing" textLength="189.0684" x="39" y="1265.0918">mayDrop():List&lt;AbstractProp&gt;</text></g><!--class BaseBullet--><g class="entity" data-entity="BaseBullet" data-source-line="167" data-uid="ent0027" id="entity_BaseBullet"><rect fill="#F1F1F1" height="122.4844" rx="2.5" ry="2.5" style="stroke:#181818;stroke-width:0.5;" width="475.0322" x="1404.5" y="571"/><ellipse cx="1604.3008" cy="587" fill="#A9DCDF" rx="11" ry="11" style="stroke:#181818;stroke-width:1;"/><path d="M1606.4883,588.7656 L1602.3477,588.7656 L1601.9258,589.7969 L1602.3477,589.7969 Q1602.957,589.7969 1603.2227,590.0313 Q1603.4883,590.2656 1603.4883,590.6563 Q1603.4883,591.0313 1603.2227,591.2656 Q1602.957,591.5 1602.3477,591.5 L1600.0508,591.5 Q1599.4414,591.5 1599.1914,591.2656 Q1598.9258,591.0313 1598.9258,590.6406 Q1598.9258,590.2656 1599.207,590.0313 Q1599.4727,589.7813 1600.0977,589.7969 L1602.7695,583.1406 L1601.6602,583.1406 Q1601.0508,583.1406 1600.7852,582.9063 Q1600.5195,582.6719 1600.5195,582.2813 Q1600.5195,581.9063 1600.7852,581.6719 Q1601.0508,581.4375 1601.6602,581.4375 L1605.332,581.4375 L1608.7227,589.7969 Q1609.3164,589.7969 1609.5039,589.9375 Q1609.8945,590.2031 1609.8945,590.6563 Q1609.8945,591.0313 1609.6289,591.2656 Q1609.3789,591.5 1608.7695,591.5 L1606.4727,591.5 Q1605.8633,591.5 1605.5977,591.2656 Q1605.332,591.0313 1605.332,590.6406 Q1605.332,590.2656 1605.5977,590.0313 Q1605.8633,589.7969 1606.4727,589.7969 L1606.8945,589.7969 L1606.4883,588.7656 Z M1605.7695,587.0625 L1604.4102,583.6875 L1603.0352,587.0625 L1605.7695,587.0625 Z " fill="#000000"/><text fill="#000000" font-family="sans-serif" font-size="14" font-style="italic" lengthAdjust="spacing" textLength="66.9307" x="1624.8008" y="592.7969">BaseBullet</text><line style="stroke:#181818;stroke-width:0.5;" x1="1405.5" x2="1878.5322" y1="603" y2="603"/><rect fill="none" height="6" style="stroke:#C82930;stroke-width:1;" width="6" x="1412.5" y="614.8105"/><text fill="#000000" font-family="sans-serif" font-size="14" lengthAdjust="spacing" textLength="56.8066" x="1424.5" y="622.1074">power:int</text><line style="stroke:#181818;stroke-width:0.5;" x1="1405.5" x2="1878.5322" y1="629.6211" y2="629.6211"/><ellipse cx="1415.5" cy="644.4316" fill="#84BE84" rx="3" ry="3" style="stroke:#038048;stroke-width:1;"/><text fill="#000000" font-family="sans-serif" font-size="14" lengthAdjust="spacing" textLength="449.0322" x="1424.5" y="648.7285">BaseBullet(int locationX, int locationY, int speedX, int speedY, int power)</text><ellipse cx="1415.5" cy="663.0527" fill="#84BE84" rx="3" ry="3" style="stroke:#038048;stroke-width:1;"/><text fill="#000000" font-family="sans-serif" font-size="14" lengthAdjust="spacing" textLength="85.5791" x="1424.5" y="667.3496">forward():void</text><ellipse cx="1415.5" cy="681.6738" fill="#84BE84" rx="3" ry="3" style="stroke:#038048;stroke-width:1;"/><text fill="#000000" font-family="sans-serif" font-size="14" lengthAdjust="spacing" textLength="87.1445" x="1424.5" y="685.9707">getPower():int</text></g><!--class HeroBullet--><g class="entity" data-entity="HeroBullet" data-source-line="176" data-uid="ent0029" id="entity_HeroBullet"><rect fill="#F1F1F1" height="66.6211" rx="2.5" ry="2.5" style="stroke:#181818;stroke-width:0.5;" width="473.4668" x="1017.5" y="902"/><ellipse cx="1217.3008" cy="918" fill="#ADD1B2" rx="11" ry="11" style="stroke:#181818;stroke-width:1;"/><path d="M1220.0664,913.875 Q1220.2227,913.6563 1220.4102,913.5469 Q1220.5977,913.4375 1220.8164,913.4375 Q1221.1914,913.4375 1221.4258,913.7031 Q1221.6602,913.9531 1221.6602,914.5625 L1221.6602,916.0156 Q1221.6602,916.625 1221.4258,916.8906 Q1221.1914,917.1563 1220.8164,917.1563 Q1220.4727,917.1563 1220.2695,916.9531 Q1220.0664,916.7656 1219.957,916.25 Q1219.9102,915.8906 1219.7227,915.7031 Q1219.3945,915.3281 1218.7852,915.1094 Q1218.1758,914.8906 1217.5508,914.8906 Q1216.7852,914.8906 1216.1445,915.2188 Q1215.5195,915.5469 1215.0195,916.2969 Q1214.5352,917.0469 1214.5352,918.0781 L1214.5352,919.1719 Q1214.5352,920.4063 1215.4258,921.2344 Q1216.3164,922.0469 1217.9102,922.0469 Q1218.8477,922.0469 1219.5039,921.7969 Q1219.8945,921.6406 1220.3164,921.2031 Q1220.582,920.9375 1220.7227,920.8594 Q1220.8789,920.7813 1221.082,920.7813 Q1221.4102,920.7813 1221.6602,921.0469 Q1221.9258,921.2969 1221.9258,921.6406 Q1221.9258,921.9844 1221.582,922.3906 Q1221.082,922.9688 1220.2852,923.2969 Q1219.207,923.75 1217.9102,923.75 Q1216.3945,923.75 1215.1914,923.125 Q1214.207,922.625 1213.5195,921.5625 Q1212.832,920.4844 1212.832,919.2031 L1212.832,918.0469 Q1212.832,916.7188 1213.4414,915.5781 Q1214.0664,914.4219 1215.1602,913.8125 Q1216.2539,913.1875 1217.4883,913.1875 Q1218.2227,913.1875 1218.8633,913.3594 Q1219.5195,913.5156 1220.0664,913.875 Z " fill="#000000"/><text fill="#000000" font-family="sans-serif" font-size="14" lengthAdjust="spacing" textLength="65.3652" x="1237.8008" y="923.7969">HeroBullet</text><line style="stroke:#181818;stroke-width:0.5;" x1="1018.5" x2="1489.9668" y1="934" y2="934"/><line style="stroke:#181818;stroke-width:0.5;" x1="1018.5" x2="1489.9668" y1="942" y2="942"/><ellipse cx="1028.5" cy="956.8105" fill="#84BE84" rx="3" ry="3" style="stroke:#038048;stroke-width:1;"/><text fill="#000000" font-family="sans-serif" font-size="14" lengthAdjust="spacing" textLength="447.4668" x="1037.5" y="961.1074">HeroBullet(int locationX, int locationY, int speedX, int speedY, int power)</text></g><!--class EnemyBullet--><g class="entity" data-entity="EnemyBullet" data-source-line="180" data-uid="ent0030" id="entity_EnemyBullet"><rect fill="#F1F1F1" height="66.6211" rx="2.5" ry="2.5" style="stroke:#181818;stroke-width:0.5;" width="486.6943" x="1525.5" y="902"/><ellipse cx="1725.3008" cy="918" fill="#ADD1B2" rx="11" ry="11" style="stroke:#181818;stroke-width:1;"/><path d="M1728.0664,913.875 Q1728.2227,913.6563 1728.4102,913.5469 Q1728.5977,913.4375 1728.8164,913.4375 Q1729.1914,913.4375 1729.4258,913.7031 Q1729.6602,913.9531 1729.6602,914.5625 L1729.6602,916.0156 Q1729.6602,916.625 1729.4258,916.8906 Q1729.1914,917.1563 1728.8164,917.1563 Q1728.4727,917.1563 1728.2695,916.9531 Q1728.0664,916.7656 1727.957,916.25 Q1727.9102,915.8906 1727.7227,915.7031 Q1727.3945,915.3281 1726.7852,915.1094 Q1726.1758,914.8906 1725.5508,914.8906 Q1724.7852,914.8906 1724.1445,915.2188 Q1723.5195,915.5469 1723.0195,916.2969 Q1722.5352,917.0469 1722.5352,918.0781 L1722.5352,919.1719 Q1722.5352,920.4063 1723.4258,921.2344 Q1724.3164,922.0469 1725.9102,922.0469 Q1726.8477,922.0469 1727.5039,921.7969 Q1727.8945,921.6406 1728.3164,921.2031 Q1728.582,920.9375 1728.7227,920.8594 Q1728.8789,920.7813 1729.082,920.7813 Q1729.4102,920.7813 1729.6602,921.0469 Q1729.9258,921.2969 1729.9258,921.6406 Q1729.9258,921.9844 1729.582,922.3906 Q1729.082,922.9688 1728.2852,923.2969 Q1727.207,923.75 1725.9102,923.75 Q1724.3945,923.75 1723.1914,923.125 Q1722.207,922.625 1721.5195,921.5625 Q1720.832,920.4844 1720.832,919.2031 L1720.832,918.0469 Q1720.832,916.7188 1721.4414,915.5781 Q1722.0664,914.4219 1723.1602,913.8125 Q1724.2539,913.1875 1725.4883,913.1875 Q1726.2227,913.1875 1726.8633,913.3594 Q1727.5195,913.5156 1728.0664,913.875 Z " fill="#000000"/><text fill="#000000" font-family="sans-serif" font-size="14" lengthAdjust="spacing" textLength="78.5928" x="1745.8008" y="923.7969">EnemyBullet</text><line style="stroke:#181818;stroke-width:0.5;" x1="1526.5" x2="2011.1943" y1="934" y2="934"/><line style="stroke:#181818;stroke-width:0.5;" x1="1526.5" x2="2011.1943" y1="942" y2="942"/><ellipse cx="1536.5" cy="956.8105" fill="#84BE84" rx="3" ry="3" style="stroke:#038048;stroke-width:1;"/><text fill="#000000" font-family="sans-serif" font-size="14" lengthAdjust="spacing" textLength="460.6943" x="1545.5" y="961.1074">EnemyBullet(int locationX, int locationY, int speedX, int speedY, int power)</text></g><!--class AbstractProp--><g class="entity" data-entity="AbstractProp" data-source-line="188" data-uid="ent0033" id="entity_AbstractProp"><rect fill="#F1F1F1" height="103.8633" rx="2.5" ry="2.5" style="stroke:#181818;stroke-width:0.5;" width="424.4395" x="2166" y="580"/><ellipse cx="2333.5078" cy="596" fill="#A9DCDF" rx="11" ry="11" style="stroke:#181818;stroke-width:1;"/><path d="M2335.6953,597.7656 L2331.5547,597.7656 L2331.1328,598.7969 L2331.5547,598.7969 Q2332.1641,598.7969 2332.4297,599.0313 Q2332.6953,599.2656 2332.6953,599.6563 Q2332.6953,600.0313 2332.4297,600.2656 Q2332.1641,600.5 2331.5547,600.5 L2329.2578,600.5 Q2328.6484,600.5 2328.3984,600.2656 Q2328.1328,600.0313 2328.1328,599.6406 Q2328.1328,599.2656 2328.4141,599.0313 Q2328.6797,598.7813 2329.3047,598.7969 L2331.9766,592.1406 L2330.8672,592.1406 Q2330.2578,592.1406 2329.9922,591.9063 Q2329.7266,591.6719 2329.7266,591.2813 Q2329.7266,590.9063 2329.9922,590.6719 Q2330.2578,590.4375 2330.8672,590.4375 L2334.5391,590.4375 L2337.9297,598.7969 Q2338.5234,598.7969 2338.7109,598.9375 Q2339.1016,599.2031 2339.1016,599.6563 Q2339.1016,600.0313 2338.8359,600.2656 Q2338.5859,600.5 2337.9766,600.5 L2335.6797,600.5 Q2335.0703,600.5 2334.8047,600.2656 Q2334.5391,600.0313 2334.5391,599.6406 Q2334.5391,599.2656 2334.8047,599.0313 Q2335.0703,598.7969 2335.6797,598.7969 L2336.1016,598.7969 L2335.6953,597.7656 Z M2334.9766,596.0625 L2333.6172,592.6875 L2332.2422,596.0625 L2334.9766,596.0625 Z " fill="#000000"/><text fill="#000000" font-family="sans-serif" font-size="14" font-style="italic" lengthAdjust="spacing" textLength="80.9238" x="2354.0078" y="601.7969">AbstractProp</text><line style="stroke:#181818;stroke-width:0.5;" x1="2167" x2="2589.4395" y1="612" y2="612"/><line style="stroke:#181818;stroke-width:0.5;" x1="2167" x2="2589.4395" y1="620" y2="620"/><ellipse cx="2177" cy="634.8105" fill="#84BE84" rx="3" ry="3" style="stroke:#038048;stroke-width:1;"/><text fill="#000000" font-family="sans-serif" font-size="14" lengthAdjust="spacing" textLength="398.4395" x="2186" y="639.1074">AbstractProp(int locationX, int locationY, int speedX, int speedY)</text><ellipse cx="2177" cy="653.4316" fill="#84BE84" rx="3" ry="3" style="stroke:#038048;stroke-width:1;"/><text fill="#000000" font-family="sans-serif" font-size="14" lengthAdjust="spacing" textLength="85.5791" x="2186" y="657.7285">forward():void</text><ellipse cx="2177" cy="672.0527" fill="#84BE84" rx="3" ry="3" style="stroke:#038048;stroke-width:1;"/><text fill="#000000" font-family="sans-serif" font-size="14" font-style="italic" lengthAdjust="spacing" textLength="224.0684" x="2186" y="676.3496">effect(HeroAircraft heroAircraft):void</text></g><!--class BloodProp--><g class="entity" data-entity="BloodProp" data-source-line="196" data-uid="ent0035" id="entity_BloodProp"><rect fill="#F1F1F1" height="103.8633" rx="2.5" ry="2.5" style="stroke:#181818;stroke-width:0.5;" width="408.8945" x="2047.5" y="883.5"/><ellipse cx="2215.0078" cy="899.5" fill="#ADD1B2" rx="11" ry="11" style="stroke:#181818;stroke-width:1;"/><path d="M2217.7734,895.375 Q2217.9297,895.1563 2218.1172,895.0469 Q2218.3047,894.9375 2218.5234,894.9375 Q2218.8984,894.9375 2219.1328,895.2031 Q2219.3672,895.4531 2219.3672,896.0625 L2219.3672,897.5156 Q2219.3672,898.125 2219.1328,898.3906 Q2218.8984,898.6563 2218.5234,898.6563 Q2218.1797,898.6563 2217.9766,898.4531 Q2217.7734,898.2656 2217.6641,897.75 Q2217.6172,897.3906 2217.4297,897.2031 Q2217.1016,896.8281 2216.4922,896.6094 Q2215.8828,896.3906 2215.2578,896.3906 Q2214.4922,896.3906 2213.8516,896.7188 Q2213.2266,897.0469 2212.7266,897.7969 Q2212.2422,898.5469 2212.2422,899.5781 L2212.2422,900.6719 Q2212.2422,901.9063 2213.1328,902.7344 Q2214.0234,903.5469 2215.6172,903.5469 Q2216.5547,903.5469 2217.2109,903.2969 Q2217.6016,903.1406 2218.0234,902.7031 Q2218.2891,902.4375 2218.4297,902.3594 Q2218.5859,902.2813 2218.7891,902.2813 Q2219.1172,902.2813 2219.3672,902.5469 Q2219.6328,902.7969 2219.6328,903.1406 Q2219.6328,903.4844 2219.2891,903.8906 Q2218.7891,904.4688 2217.9922,904.7969 Q2216.9141,905.25 2215.6172,905.25 Q2214.1016,905.25 2212.8984,904.625 Q2211.9141,904.125 2211.2266,903.0625 Q2210.5391,901.9844 2210.5391,900.7031 L2210.5391,899.5469 Q2210.5391,898.2188 2211.1484,897.0781 Q2211.7734,895.9219 2212.8672,895.3125 Q2213.9609,894.6875 2215.1953,894.6875 Q2215.9297,894.6875 2216.5703,894.8594 Q2217.2266,895.0156 2217.7734,895.375 Z " fill="#000000"/><text fill="#000000" font-family="sans-serif" font-size="14" lengthAdjust="spacing" textLength="65.3789" x="2235.5078" y="905.2969">BloodProp</text><line style="stroke:#181818;stroke-width:0.5;" x1="2048.5" x2="2455.3945" y1="915.5" y2="915.5"/><rect fill="none" height="6" style="stroke:#C82930;stroke-width:1;" width="6" x="2055.5" y="927.3105"/><text fill="#000000" font-family="sans-serif" font-size="14" lengthAdjust="spacing" text-decoration="underline" textLength="147.0479" x="2067.5" y="934.6074">BLOOD_INCREASE:int</text><line style="stroke:#181818;stroke-width:0.5;" x1="2048.5" x2="2455.3945" y1="942.1211" y2="942.1211"/><ellipse cx="2058.5" cy="956.9316" fill="#84BE84" rx="3" ry="3" style="stroke:#038048;stroke-width:1;"/><text fill="#000000" font-family="sans-serif" font-size="14" lengthAdjust="spacing" textLength="382.8945" x="2067.5" y="961.2285">BloodProp(int locationX, int locationY, int speedX, int speedY)</text><ellipse cx="2058.5" cy="975.5527" fill="#84BE84" rx="3" ry="3" style="stroke:#038048;stroke-width:1;"/><text fill="#000000" font-family="sans-serif" font-size="14" lengthAdjust="spacing" textLength="224.0684" x="2067.5" y="979.8496">effect(HeroAircraft heroAircraft):void</text></g><!--class BombProp--><g class="entity" data-entity="BombProp" data-source-line="202" data-uid="ent0036" id="entity_BombProp"><rect fill="#F1F1F1" height="85.2422" rx="2.5" ry="2.5" style="stroke:#181818;stroke-width:0.5;" width="409.6602" x="2492" y="893"/><ellipse cx="2659.5078" cy="909" fill="#ADD1B2" rx="11" ry="11" style="stroke:#181818;stroke-width:1;"/><path d="M2662.2734,904.875 Q2662.4297,904.6563 2662.6172,904.5469 Q2662.8047,904.4375 2663.0234,904.4375 Q2663.3984,904.4375 2663.6328,904.7031 Q2663.8672,904.9531 2663.8672,905.5625 L2663.8672,907.0156 Q2663.8672,907.625 2663.6328,907.8906 Q2663.3984,908.1563 2663.0234,908.1563 Q2662.6797,908.1563 2662.4766,907.9531 Q2662.2734,907.7656 2662.1641,907.25 Q2662.1172,906.8906 2661.9297,906.7031 Q2661.6016,906.3281 2660.9922,906.1094 Q2660.3828,905.8906 2659.7578,905.8906 Q2658.9922,905.8906 2658.3516,906.2188 Q2657.7266,906.5469 2657.2266,907.2969 Q2656.7422,908.0469 2656.7422,909.0781 L2656.7422,910.1719 Q2656.7422,911.4063 2657.6328,912.2344 Q2658.5234,913.0469 2660.1172,913.0469 Q2661.0547,913.0469 2661.7109,912.7969 Q2662.1016,912.6406 2662.5234,912.2031 Q2662.7891,911.9375 2662.9297,911.8594 Q2663.0859,911.7813 2663.2891,911.7813 Q2663.6172,911.7813 2663.8672,912.0469 Q2664.1328,912.2969 2664.1328,912.6406 Q2664.1328,912.9844 2663.7891,913.3906 Q2663.2891,913.9688 2662.4922,914.2969 Q2661.4141,914.75 2660.1172,914.75 Q2658.6016,914.75 2657.3984,914.125 Q2656.4141,913.625 2655.7266,912.5625 Q2655.0391,911.4844 2655.0391,910.2031 L2655.0391,909.0469 Q2655.0391,907.7188 2655.6484,906.5781 Q2656.2734,905.4219 2657.3672,904.8125 Q2658.4609,904.1875 2659.6953,904.1875 Q2660.4297,904.1875 2661.0703,904.3594 Q2661.7266,904.5156 2662.2734,904.875 Z " fill="#000000"/><text fill="#000000" font-family="sans-serif" font-size="14" lengthAdjust="spacing" textLength="66.1445" x="2680.0078" y="914.7969">BombProp</text><line style="stroke:#181818;stroke-width:0.5;" x1="2493" x2="2900.6602" y1="925" y2="925"/><line style="stroke:#181818;stroke-width:0.5;" x1="2493" x2="2900.6602" y1="933" y2="933"/><ellipse cx="2503" cy="947.8105" fill="#84BE84" rx="3" ry="3" style="stroke:#038048;stroke-width:1;"/><text fill="#000000" font-family="sans-serif" font-size="14" lengthAdjust="spacing" textLength="383.6602" x="2512" y="952.1074">BombProp(int locationX, int locationY, int speedX, int speedY)</text><ellipse cx="2503" cy="966.4316" fill="#84BE84" rx="3" ry="3" style="stroke:#038048;stroke-width:1;"/><text fill="#000000" font-family="sans-serif" font-size="14" lengthAdjust="spacing" textLength="224.0684" x="2512" y="970.7285">effect(HeroAircraft heroAircraft):void</text></g><!--class BulletProp--><g class="entity" data-entity="BulletProp" data-source-line="207" data-uid="ent0037" id="entity_BulletProp"><rect fill="#F1F1F1" height="85.2422" rx="2.5" ry="2.5" style="stroke:#181818;stroke-width:0.5;" width="408.1084" x="2937" y="893"/><ellipse cx="3104.5078" cy="909" fill="#ADD1B2" rx="11" ry="11" style="stroke:#181818;stroke-width:1;"/><path d="M3107.2734,904.875 Q3107.4297,904.6563 3107.6172,904.5469 Q3107.8047,904.4375 3108.0234,904.4375 Q3108.3984,904.4375 3108.6328,904.7031 Q3108.8672,904.9531 3108.8672,905.5625 L3108.8672,907.0156 Q3108.8672,907.625 3108.6328,907.8906 Q3108.3984,908.1563 3108.0234,908.1563 Q3107.6797,908.1563 3107.4766,907.9531 Q3107.2734,907.7656 3107.1641,907.25 Q3107.1172,906.8906 3106.9297,906.7031 Q3106.6016,906.3281 3105.9922,906.1094 Q3105.3828,905.8906 3104.7578,905.8906 Q3103.9922,905.8906 3103.3516,906.2188 Q3102.7266,906.5469 3102.2266,907.2969 Q3101.7422,908.0469 3101.7422,909.0781 L3101.7422,910.1719 Q3101.7422,911.4063 3102.6328,912.2344 Q3103.5234,913.0469 3105.1172,913.0469 Q3106.0547,913.0469 3106.7109,912.7969 Q3107.1016,912.6406 3107.5234,912.2031 Q3107.7891,911.9375 3107.9297,911.8594 Q3108.0859,911.7813 3108.2891,911.7813 Q3108.6172,911.7813 3108.8672,912.0469 Q3109.1328,912.2969 3109.1328,912.6406 Q3109.1328,912.9844 3108.7891,913.3906 Q3108.2891,913.9688 3107.4922,914.2969 Q3106.4141,914.75 3105.1172,914.75 Q3103.6016,914.75 3102.3984,914.125 Q3101.4141,913.625 3100.7266,912.5625 Q3100.0391,911.4844 3100.0391,910.2031 L3100.0391,909.0469 Q3100.0391,907.7188 3100.6484,906.5781 Q3101.2734,905.4219 3102.3672,904.8125 Q3103.4609,904.1875 3104.6953,904.1875 Q3105.4297,904.1875 3106.0703,904.3594 Q3106.7266,904.5156 3107.2734,904.875 Z " fill="#000000"/><text fill="#000000" font-family="sans-serif" font-size="14" lengthAdjust="spacing" textLength="64.5928" x="3125.0078" y="914.7969">BulletProp</text><line style="stroke:#181818;stroke-width:0.5;" x1="2938" x2="3344.1084" y1="925" y2="925"/><line style="stroke:#181818;stroke-width:0.5;" x1="2938" x2="3344.1084" y1="933" y2="933"/><ellipse cx="2948" cy="947.8105" fill="#84BE84" rx="3" ry="3" style="stroke:#038048;stroke-width:1;"/><text fill="#000000" font-family="sans-serif" font-size="14" lengthAdjust="spacing" textLength="382.1084" x="2957" y="952.1074">BulletProp(int locationX, int locationY, int speedX, int speedY)</text><ellipse cx="2948" cy="966.4316" fill="#84BE84" rx="3" ry="3" style="stroke:#038048;stroke-width:1;"/><text fill="#000000" font-family="sans-serif" font-size="14" lengthAdjust="spacing" textLength="224.0684" x="2957" y="970.7285">effect(HeroAircraft heroAircraft):void</text></g><!--reverse link AbstractFlyingObject to AbstractAircraft--><g class="link" data-entity-1="AbstractFlyingObject" data-entity-2="AbstractAircraft" data-source-line="41" data-uid="lnk4" id="link_AbstractFlyingObject_AbstractAircraft"><path codeLine="41" d="M1388.9227,335.4376 C1261.4727,394.5876 1120.92,459.81 992.84,519.24" fill="none" id="AbstractFlyingObject-backto-AbstractAircraft" style="stroke:#181818;stroke-width:1;"/><polygon fill="none" points="1405.25,327.86,1386.3969,329.9951,1391.4486,340.88,1405.25,327.86" style="stroke:#181818;stroke-width:1;"/></g><!--reverse link AbstractAircraft to AbstractEnemy--><g class="link" data-entity-1="AbstractAircraft" data-entity-2="AbstractEnemy" data-source-line="50" data-uid="lnk6" id="link_AbstractAircraft_AbstractEnemy"><path codeLine="50" d="M510.9954,776.8879 C442.1454,817.9979 386.03,851.49 332.56,883.42" fill="none" id="AbstractAircraft-backto-AbstractEnemy" style="stroke:#181818;stroke-width:1;"/><polygon fill="none" points="526.45,767.66,507.9194,771.7363,514.0713,782.0394,526.45,767.66" style="stroke:#181818;stroke-width:1;"/></g><!--reverse link AbstractAircraft to HeroAircraft--><g class="link" data-entity-1="AbstractAircraft" data-entity-2="HeroAircraft" data-source-line="64" data-uid="lnk8" id="link_AbstractAircraft_HeroAircraft"><path codeLine="64" d="M752,785.88 C752,809.08 752,814.79 752,836.78" fill="none" id="AbstractAircraft-backto-HeroAircraft" style="stroke:#181818;stroke-width:1;"/><polygon fill="none" points="752,767.88,746,785.88,758,785.88,752,767.88" style="stroke:#181818;stroke-width:1;"/></g><!--reverse link EnemyFactory to RandomEnemyFactory--><g class="link" data-entity-1="EnemyFactory" data-entity-2="RandomEnemyFactory" data-source-line="99" data-uid="lnk13" id="link_EnemyFactory_RandomEnemyFactory"><path codeLine="99" d="M3760.4683,268.5219 C3744.7683,356.8019 3713.37,587.8 3781,777 C3792.42,808.95 3813.13,839.41 3834.39,864.88" fill="none" id="EnemyFactory-backto-RandomEnemyFactory" style="stroke:#181818;stroke-width:1;stroke-dasharray:7,7;"/><polygon fill="none" points="3763.62,250.8,3754.561,267.4714,3766.3756,269.5725,3763.62,250.8" style="stroke:#181818;stroke-width:1;"/></g><!--reverse link EnemyFactory to UnifiedEnemyFactory--><g class="link" data-entity-1="EnemyFactory" data-entity-2="UnifiedEnemyFactory" data-source-line="100" data-uid="lnk14" id="link_EnemyFactory_UnifiedEnemyFactory"><path codeLine="100" d="M3795.6923,266.6686 C3822.4323,317.3286 3867,401.78 3911.82,486.68" fill="none" id="EnemyFactory-backto-UnifiedEnemyFactory" style="stroke:#181818;stroke-width:1;stroke-dasharray:7,7;"/><polygon fill="none" points="3787.29,250.75,3790.3861,269.4693,3800.9985,263.8678,3787.29,250.75" style="stroke:#181818;stroke-width:1;"/></g><!--link UnifiedEnemyFactory to RandomEnemyFactory--><g class="link" data-entity-1="UnifiedEnemyFactory" data-entity-2="RandomEnemyFactory" data-source-line="101" data-uid="lnk15" id="link_UnifiedEnemyFactory_RandomEnemyFactory"><path codeLine="101" d="M3946.7272,782.9147 C3938.3072,813.4947 3934.5654,827.0905 3927.3354,853.3505" fill="none" id="UnifiedEnemyFactory-RandomEnemyFactory" style="stroke:#181818;stroke-width:1;"/><polygon fill="#181818" points="3948.32,777.13,3942.0743,784.7452,3946.9927,781.9506,3949.7873,786.8689,3948.32,777.13" style="stroke:#181818;stroke-width:1;"/><polygon fill="#181818" points="3924.15,864.92,3929.5992,860.197,3927.3354,853.3505,3921.8862,858.0735,3924.15,864.92" style="stroke:#181818;stroke-width:1;"/></g><!--reverse link PropFactory to UnifiedPropFactory--><g class="link" data-entity-1="PropFactory" data-entity-2="UnifiedPropFactory" data-source-line="132" data-uid="lnk20" id="link_PropFactory_UnifiedPropFactory"><path codeLine="132" d="M3517,268.75 C3517,331.24 3517,451.36 3517,542.8" fill="none" id="PropFactory-backto-UnifiedPropFactory" style="stroke:#181818;stroke-width:1;stroke-dasharray:7,7;"/><polygon fill="none" points="3517,250.75,3511,268.75,3523,268.75,3517,250.75" style="stroke:#181818;stroke-width:1;"/></g><!--link RandomPropDropper to EliteEnemy--><g class="link" data-entity-1="RandomPropDropper" data-entity-2="EliteEnemy" data-source-line="133" data-uid="lnk22" id="link_RandomPropDropper_EliteEnemy"><path codeLine="133" d="M3397.6592,1018.412 C3384.2492,1025.462 3375.75,1029.01 3362,1034 C3025.63,1156 2620.4627,1189.6518 2367.2627,1198.4818" fill="none" id="RandomPropDropper-EliteEnemy" style="stroke:#181818;stroke-width:1;"/><polygon fill="#181818" points="3402.97,1015.62,3393.1425,1016.2675,3398.5443,1017.9467,3396.8652,1023.3486,3402.97,1015.62" style="stroke:#181818;stroke-width:1;"/><polygon fill="#181818" points="2355.27,1198.9,2361.4058,1202.6885,2367.2627,1198.4818,2361.1269,1194.6933,2355.27,1198.9" style="stroke:#181818;stroke-width:1;"/></g><!--link UnifiedPropFactory to RandomPropDropper--><g class="link" data-entity-1="UnifiedPropFactory" data-entity-2="RandomPropDropper" data-source-line="134" data-uid="lnk23" id="link_UnifiedPropFactory_RandomPropDropper"><path codeLine="134" d="M3517,727.02 C3517,769.51 3517,802.11 3517,843.37" fill="none" id="UnifiedPropFactory-RandomPropDropper" style="stroke:#181818;stroke-width:1;"/><polygon fill="#181818" points="3517,721.02,3513,730.02,3517,726.02,3521,730.02,3517,721.02" style="stroke:#181818;stroke-width:1;"/><polygon fill="#181818" points="3517,855.37,3521,849.37,3517,843.37,3513,849.37,3517,855.37" style="stroke:#181818;stroke-width:1;"/></g><!--reverse link AbstractEnemy to MobEnemy--><g class="link" data-entity-1="AbstractEnemy" data-entity-2="MobEnemy" data-source-line="162" data-uid="lnk25" id="link_AbstractEnemy_MobEnemy"><path codeLine="162" d="M247,1005.81 C247,1046.67 247,1086.29 247,1131.32" fill="none" id="AbstractEnemy-backto-MobEnemy" style="stroke:#181818;stroke-width:1;"/><polygon fill="none" points="247,987.81,241,1005.81,253,1005.81,247,987.81" style="stroke:#181818;stroke-width:1;"/></g><!--reverse link AbstractEnemy to EliteEnemy--><g class="link" data-entity-1="AbstractEnemy" data-entity-2="EliteEnemy" data-source-line="163" data-uid="lnk26" id="link_AbstractEnemy_EliteEnemy"><path codeLine="163" d="M379.0945,994.2453 C422.6945,1011.5953 456.52,1022.75 504,1034 C992.21,1149.64 1581.8,1185.2 1898.77,1196.14" fill="none" id="AbstractEnemy-backto-EliteEnemy" style="stroke:#181818;stroke-width:1;"/><polygon fill="none" points="362.37,987.59,376.876,999.8201,381.3129,988.6704,362.37,987.59" style="stroke:#181818;stroke-width:1;"/></g><!--reverse link AbstractFlyingObject to BaseBullet--><g class="link" data-entity-1="AbstractFlyingObject" data-entity-2="BaseBullet" data-source-line="174" data-uid="lnk28" id="link_AbstractFlyingObject_BaseBullet"><path codeLine="174" d="M1642,445.22 C1642,497.79 1642,532.12 1642,570.59" fill="none" id="AbstractFlyingObject-backto-BaseBullet" style="stroke:#181818;stroke-width:1;"/><polygon fill="none" points="1642,427.22,1636,445.22,1648,445.22,1642,427.22" style="stroke:#181818;stroke-width:1;"/></g><!--reverse link BaseBullet to HeroBullet--><g class="link" data-entity-1="BaseBullet" data-entity-2="HeroBullet" data-source-line="184" data-uid="lnk31" id="link_BaseBullet_HeroBullet"><path codeLine="184" d="M1550.1967,704.3346 C1469.3667,767.1446 1359.97,852.16 1295.85,901.98" fill="none" id="BaseBullet-backto-HeroBullet" style="stroke:#181818;stroke-width:1;"/><polygon fill="none" points="1564.41,693.29,1546.5152,699.5968,1553.8783,709.0724,1564.41,693.29" style="stroke:#181818;stroke-width:1;"/></g><!--reverse link BaseBullet to EnemyBullet--><g class="link" data-entity-1="BaseBullet" data-entity-2="EnemyBullet" data-source-line="185" data-uid="lnk32" id="link_BaseBullet_EnemyBullet"><path codeLine="185" d="M1674.3876,709.8783 C1700.8076,772.5983 1734.2,851.89 1755.22,901.78" fill="none" id="BaseBullet-backto-EnemyBullet" style="stroke:#181818;stroke-width:1;"/><polygon fill="none" points="1667.4,693.29,1668.8582,712.2076,1679.9171,707.5491,1667.4,693.29" style="stroke:#181818;stroke-width:1;"/></g><!--reverse link AbstractFlyingObject to AbstractProp--><g class="link" data-entity-1="AbstractFlyingObject" data-entity-2="AbstractProp" data-source-line="194" data-uid="lnk34" id="link_AbstractFlyingObject_AbstractProp"><path codeLine="194" d="M1894.3678,359.618 C2033.4878,437.678 2185.72,523.1 2287.07,579.98" fill="none" id="AbstractFlyingObject-backto-AbstractProp" style="stroke:#181818;stroke-width:1;"/><polygon fill="none" points="1878.67,350.81,1891.4318,364.8506,1897.3037,354.3854,1878.67,350.81" style="stroke:#181818;stroke-width:1;"/></g><!--reverse link AbstractProp to BloodProp--><g class="link" data-entity-1="AbstractProp" data-entity-2="BloodProp" data-source-line="212" data-uid="lnk38" id="link_AbstractProp_BloodProp"><path codeLine="212" d="M2349.6874,700.7572 C2326.4774,756.2772 2296.58,827.83 2273.37,883.36" fill="none" id="AbstractProp-backto-BloodProp" style="stroke:#181818;stroke-width:1;"/><polygon fill="none" points="2356.63,684.15,2344.1516,698.443,2355.2231,703.0714,2356.63,684.15" style="stroke:#181818;stroke-width:1;"/></g><!--reverse link AbstractProp to BombProp--><g class="link" data-entity-1="AbstractProp" data-entity-2="BombProp" data-source-line="213" data-uid="lnk39" id="link_AbstractProp_BombProp"><path codeLine="213" d="M2445.1924,696.5133 C2507.4124,755.3133 2595.27,838.35 2652.91,892.83" fill="none" id="AbstractProp-backto-BombProp" style="stroke:#181818;stroke-width:1;"/><polygon fill="none" points="2432.11,684.15,2441.0713,700.8741,2449.3135,692.1525,2432.11,684.15" style="stroke:#181818;stroke-width:1;"/></g><!--reverse link AbstractProp to BulletProp--><g class="link" data-entity-1="AbstractProp" data-entity-2="BulletProp" data-source-line="214" data-uid="lnk40" id="link_AbstractProp_BulletProp"><path codeLine="214" d="M2536.3854,690.1911 C2646.0054,730.2711 2784.46,782.13 2919,837 C2962.17,854.6 3009.54,875.22 3049.39,892.96" fill="none" id="AbstractProp-backto-BulletProp" style="stroke:#181818;stroke-width:1;"/><polygon fill="none" points="2519.48,684.01,2534.3251,695.8262,2538.4458,684.5559,2519.48,684.01" style="stroke:#181818;stroke-width:1;"/></g><!--SRC=[rLXVJzjM57_Ffx2q1vAnTEyMcaJQL225KW7TYgPfSkARn9FZQzaEDA98KD6jR8mnJKngktMYKoVreHrCqqOfxJxCueGyzIli_hDzxhKJs42LnWk-vvnxxZc_yplNnndJmf-E-djhlIzVdHpi3Nv-TBAtrTzycZEgVk0PjK2hsORlQvDYUTNkM4vZjleP8ggLd4R-tj5iN3C22pitTSi95DaYaFakGkPDLG0jh9RHG7gfNQyZ3vdJT2KqovOPD85b4rcDPW2t-XyQjcNgLOnjP3XCEfuPTvviIc9-JuFBHRxaaOBdnO9mMCVUik6P-OA-X2rJ26kUuJVpcHZLmQAW1DT0GIKAWpYCSf4KYvB2JnHv4xUhDeA9A995AKRYSvvbefx4K2R2DEfC_H45NjqpnT2Nf0uEM07oQfPBXcFvpGYmrLnkJ2Cqw_rmn2dtvlZUoLS7WuSRtSFjtkuMaOTt3yAThVwzF_e7BzySRmwZugJb4Tph2GrRngqf5r84Blmcni7bJir6gd31QY4F9ABw_qzquSzDDwADYMeUCdmqvJ9tqLAj454hIC_Gf5GE22_4FTpVTaqZGFDnJimc84_JJe2y9SDMAqCypSUmCEi49SdpIbI2LMv1ugbOVZ1H8YcKshQDWWzeOJCROE9siPZ2b9A05piYmLRtzL_Te-rm__FUZqzwcq_3Wzt-Rwy9C_vUMozXKdPoBtKFZmXRmb_kz9zztzzzGZIzxSsJdLSZI59sKAiZ638kIo-ahW0Psc0rx26fM43VCZfNFEn6s4MnN2So2RsOrn9oB6GA6syMWboEPpg5FAoqGf5NwLgx5KTIr5oy36XUr4pB8-KXkO9eeQyBWQSX64P2KJaSosFUaON4kiohzYpyan64IULo5ks5kb536aFqAZ77Ni8GK2_QeG7YL2deSXt8OSXfjxYFXOwBX8EPsHBxNwvCBvIf5Q_HdE6Ok9LnO55hErRTGgOGwpVu4feAGsHR0I9agHfLYpnsT7xRYxZJ9qJl1tLV8Ib1ML4DtIA_wqR2mXFEI2FEE21mwJ5mGjZ2LN1ti_MyF1m812Gh9g4aK6p7imB85qReaaBIy016LAPgXrQ9e8ETkjMOmLLnGKiZnAdxM46adTKukP6xHzI48yKjQ5oZzFpyZAfAXPouVUbI1k4oZB8YpgB6HB7uRfP7qAtqcZorMHbqjpXodIGDkZTkMRe07LkgpCvUuK-pCxnvIpSgbVA2shrq7xs_NUJ5L3R9UewS2tjnM4k318ITn_pgt3re3b-FOlpu4wczGGXHgqOH91UkWxmq4jbl7AbNqm2BLes2YLujGreDx5Sx3QfY-BFwJ5OEGuw_FlWicz5TQVCpaGFc3yaBtQMPm9ZBseRtIWQOWDnW9vk0xZyVh3tWSv0e1kbGUMI911VoElvtRzJa5PuQQqwRPSOqFhpntEZGjhyHVl6oz_3tmUDl-o_Mtm-VxOJ7ByWwF2RghV2RN_aeDrZ_Bhpx9nteE1u9j4dJfGQNz73Z2g3JpUac9T3JHU7P9OV-tr2dap97Q_1uexzxdo3VUt2dU_Xr-FnHVtkVuZec9kJ4T8N8mFJ4XMnqYiYNfGEa7zCoz8b_BS-3AT08HU7PrAyExGaCSR7bmeu3atEKXZaTMHq2_tLg9E0V-MsJX9G38xcKnpWGdJ_k-EPcy2e70Tc5d0Hg4a_J8bjL1Ovc7_cibRCh3QcR-ZgZmel_ZGOC2wXUfpy3ILzEJR18Vgeu_OkMlJv4FKesnYP8gQYj-049kRRAnunFfwzTdYjFpfSXeQCzvyhux1b5pT-gIjX7WhSR1UEA74SiUakHI4pa_HnL94idOCfInP7d_W40]--></g></svg>